<svg xmlns="http://www.w3.org/2000/svg" viewBox="0 0 400 348.387"><defs/><g fill-rule="evenodd"><path fill="#fcfbf8" d="M168.99.469c0 .364-1.224.514-5.488.674-5.521.205-6.866.409-6.511.984.106.172.009.312-.217.312-.238 0-.333.292-.227.697.1.384.04.61-.134.502-.173-.107-.315-.055-.315.116 0 .172-1.621.489-3.602.705-4.575.5-5.375.797-5.52 2.053-.103.893-.269.996-2.012 1.245-1.045.149-1.986.386-2.091.526-.104.139-.582.254-1.061.254-.682 0-.944.245-1.205 1.132-.264.897-.519 1.132-1.229 1.132-1.255 0-2.316.842-2.553 2.027-.184.916-.398 1.046-2.398 1.458-3.13.644-4.516 1.661-2.981 2.189.24.082.161.109-.174.058-.336-.05-.61.129-.61.399 0 .325-.4.49-1.195.49-1.463 0-2.289.763-2.289 2.115 0 .863-.138 1.02-.894 1.02-1.404 0-2.142.579-2.385 1.87-.19 1.014-.399 1.225-1.399 1.413-1.339.251-2.113.996-1.822 1.755.266.692-.674 1.583-1.671 1.583-1.002 0-1.49.569-1.642 1.916-.091.811-.313 1.072-.989 1.164-1.226.168-2.09 1.049-2.09 2.133 0 .804-.194.967-1.481 1.253-1.378.305-1.504.431-1.809 1.809-.267 1.203-.475 1.481-1.108 1.481-1.041 0-1.743.76-2.009 2.176-.175.934-.442 1.231-1.348 1.498-1.161.342-1.329.712-2.166 4.775-.125.608-.422.958-.81.958-1.002 0-2.161 1.024-2.161 1.908 0 1.325-.37 1.925-1.187 1.925-.993 0-1.601.63-1.601 1.658 0 .557.141.743.436.576.239-.135.083.097-.349.516-.552.537-.784 1.169-.784 2.142 0 1.229-.092 1.38-.846 1.38-1.342 0-1.866.842-2.112 3.394-.298 3.091-.299 3.094-1.499 3.334-.694.138-1.099.47-1.233 1.007-.436 1.748-.977 7.36-.784 8.13.115.459.028.926-.198 1.066-.251.155-.31.097-.155-.152.163-.264-.055-.403-.631-.403-1.553 0-2.295 3.777-2.297 11.688l-.001 4.196-1.132.333c-.888.262-1.157.549-1.246 1.329-.085.736.006.934.348.758.254-.13.149.017-.234.327-.868.701-1.116 23.158-.26 23.443.241.08.344.298.229.485-.115.186-.113.721.004 1.189.253 1.006 1.574 1.202 1.629.242.023-.407.128-.32.314.261.153.479.294 3.462.314 6.63.031 5.206.45 10.647.947 12.287.104.343.614.709 1.133.813.93.186.952.251 1.371 4.199.488 4.597.758 5.286 2.177 5.57 1.012.202 1.027.238 1.032 2.513.006 2.778.519 3.925 1.937 4.332 1.16.333 2.321 5.257 1.391 5.898-.255.176-.257.258-.006.262.201.002.554-.183.784-.413.325-.325.418-.32.418.025 0 .261.331.399.809.337.445-.059 1.503.183 2.352.536.849.353 1.89.775 2.314.938.424.164 1.171.931 1.66 1.704.488.774 1.03 1.407 1.204 1.407.174 0 1.622 1.516 3.219 3.368 5.23 6.069 7.181 7.99 8.536 8.406 1.789.549 1.857.429 1.857-3.291 0-4.777.919-6.043 4.383-6.043 1.632 0 2.317-.632 1.611-1.486-.966-1.168-3.612-8.726-3.366-9.613.328-1.184.753-21.091.823-38.553.066-16.49.4-21.978 1.462-24.003.413-.788 1.27-3.393 1.905-5.788.635-2.395 1.673-5.378 2.308-6.627.634-1.25 1.438-3.002 1.786-3.893.348-.892 1.015-2.064 1.481-2.606.466-.542 1.229-1.792 1.696-2.777.467-.986 1.308-2.319 1.869-2.962.56-.643 1.277-1.675 1.593-2.292.316-.617.877-1.284 1.246-1.481.369-.198 1.015-.971 1.435-1.718.42-.747 1.096-1.538 1.503-1.759.406-.22 1.155-.981 1.663-1.69 1.723-2.405 6.711-7.446 8.038-8.123.727-.37 1.516-.997 1.755-1.392.238-.395 1.155-1.088 2.038-1.541.883-.452 2.086-1.225 2.672-1.719.587-.494 1.824-1.227 2.75-1.629.926-.403 2.202-1.12 2.835-1.593.634-.474 2.28-1.177 3.659-1.562s3.313-1.156 4.298-1.714c1.205-.681 2.631-1.122 4.355-1.345 3.008-.389 4.898-.763 7.856-1.553 3.461-.924 22.297-.624 25.719.41 1.342.405 3.782.883 5.424 1.062 2.239.244 3.326.548 4.355 1.219.754.492 2.312 1.149 3.462 1.461 2.55.692 4.703 1.585 4.703 1.949 0 .149 1.059.768 2.352 1.375 1.294.607 2.823 1.459 3.398 1.891.574.433 1.672 1.11 2.439 1.504.766.394 1.934 1.279 2.594 1.966.66.688 1.366 1.251 1.568 1.251.614 0 7.858 7.236 7.858 7.849 0 .185.745 1.065 1.656 1.955 1.537 1.504 2.3 2.414 5.507 6.572.665.862 1.663 2.509 2.217 3.658.554 1.15 1.409 2.466 1.9 2.925.491.459 1.157 1.635 1.48 2.613.323.979 1.169 2.955 1.88 4.393.711 1.437 1.716 4.338 2.233 6.446.517 2.108 1.354 4.683 1.86 5.722l.921 1.89.326 27.03c.391 32.481.3 33.955-2.266 36.693-1.72 1.835-3.489 4.958-3.549 6.264l-.053 1.146 3.777.175c4.6.212 5.223.672 5.628 4.157.266 2.297.441 2.473 1.396 1.417.347-.383.906-.696 1.242-.696.67 0 5.358-5.108 5.712-6.224.121-.382.754-1.01 1.407-1.395.717-.423 1.53-1.376 2.051-2.404 1.163-2.296 4.312-4.7 6.487-4.952 1.442-.168 1.576-.267 1.664-1.228.199-2.181.36-2.468 1.374-2.453.778.012.964-.136.943-.752-.014-.422.084-.699.218-.616.275.169.528-1.265.881-4.994.232-2.456.276-2.552 1.251-2.747 1.435-.287 1.659-.944 1.91-5.608l.223-4.142 1.082-.32c.822-.242 1.108-.548 1.192-1.275.09-.782-.005-.923-.523-.773-.396.114-.346.031.132-.221 1.158-.612 1.2-1.702 1.084-28.087-.104-23.628-.121-24.126-.803-24.678-.384-.309-.489-.456-.235-.326.342.176.433-.022.348-.758-.088-.769-.359-1.068-1.195-1.314l-1.082-.32-.223-4.142c-.251-4.66-.486-5.346-1.938-5.665-.988-.217-1.029-.309-1.264-2.816-.133-1.426-.381-2.592-.55-2.592-.169 0-.268-.188-.22-.418.048-.231-.462-.603-1.133-.828-1.211-.407-1.22-.426-1.394-2.84-.195-2.728-.691-3.579-2.082-3.579-.936 0-.956-.046-1.152-2.635-.22-2.904-.523-3.489-1.972-3.807-.878-.193-1.021-.434-1.406-2.374-.672-3.389-.703-3.461-1.436-3.27-.365.096-.575.032-.468-.142.107-.174-.128-.316-.522-.316-.533 0-.718-.224-.718-.871 0-.595-.193-.873-.609-.876-.523-.005-.536-.055-.087-.355.728-.488-.56-1.481-1.656-1.277-.627.117-.783-.013-.783-.653 0-1.579-.61-2.514-1.809-2.774-1.294-.281-1.663-.679-1.67-1.805-.006-.832-.921-1.493-2.067-1.493-.495 0-.777-.294-.923-.959-.436-1.99-.339-1.893-2.329-2.329-.773-.169-.959-.403-.959-1.206 0-1.067-.781-1.982-1.378-1.613-.2.123-.364.058-.364-.145 0-.203-.313-.369-.697-.369-.495 0-.696-.232-.696-.804 0-1.193-.755-2.012-2.108-2.286-1.009-.205-1.22-.411-1.311-1.277-.136-1.291-.909-1.904-2.397-1.904-.932 0-1.153-.138-1.153-.718 0-.394-.155-.621-.345-.504-.202.124-.253-.026-.123-.363.259-.676-.409-1.19-1.556-1.198-.53-.003-.729.144-.584.431.121.239.005.174-.258-.146-.263-.319-1.059-.689-1.768-.822-1.022-.192-1.289-.401-1.289-1.008 0-1.241-.795-1.977-2.365-2.187-1.231-.166-1.468-.324-1.468-.98 0-1.294-.938-1.715-4.807-2.162-1.327-.153-1.52-.29-1.704-1.208-.264-1.32-1.003-1.6-5.534-2.094-3.507-.383-3.573-.407-3.764-1.362-.297-1.489-1.198-1.733-7.205-1.957-4.322-.16-5.558-.31-5.558-.675 0-.389-4.467-.469-26.132-.469-21.665 0-26.132.08-26.132.469m25.609 193.261c-8.815.105-16.048.225-16.072.268-1.656 2.892-1.403 4.452 1.118 6.887 1.281 1.238 2.529 2.251 2.772 2.251.244 0 1.08.532 1.858 1.182 3.36 2.807 21.89 3.184 24.32.495.351-.389 1.344-1.069 2.206-1.512.863-.443 2.405-1.66 3.428-2.705l1.86-1.9-.242-1.935c-.336-2.691-1.071-3.404-3.404-3.301-.999.044-9.028.166-17.844.27"/><path fill="#4e5653" d="M154.53 147.934c-.959.266-2.322.488-3.03.491a3.427 3.427 0 00-2.26.844l-.973.837-.005 6.683-.004 6.682.912.786c.845.729 1.086.764 3.31.479 3.077-.394 11.051.011 12.551.638 1.132.473 1.163.461 1.772-.652.805-1.474 1.101-13.472.367-14.875-1.11-2.122-8.093-3.179-12.64-1.913m74.218.196c-2.76 1.119-2.616.652-2.614 8.446.001 6.35.066 7.119.684 8.133l.683 1.12 1.319-.562c1.055-.449 2.732-.57 8.365-.604 8.86-.053 8.085.704 8.1-7.917.013-7.494.019-7.476-3.125-8.646-2.765-1.029-10.844-1.011-13.412.03m48.216 23.597c-2.864 1.817-5.02 5.783-5.323 9.793-.331 4.384-.794 6.38-1.801 7.753a49.57 49.57 0 00-1.504 2.19c-2.394 3.766-6.248 7.796-8.574 8.968-1.153.581-2.458 1.339-2.9 1.685-.442.346-1.618.897-2.613 1.226-.996.328-2.803 1.122-4.017 1.763-1.213.642-2.448 1.167-2.744 1.167-.296 0-1.419.448-2.497.996-5.005 2.543-16.81 1.374-20.427-2.023-.574-.54-1.684-1.377-2.465-1.86-.781-.483-1.906-1.364-2.499-1.957-1.631-1.631-3.647-1.333-5.663.838-.479.516-1.448 1.234-2.154 1.596-.707.362-1.695 1.039-2.196 1.504-1.598 1.481-3.778 1.777-13.071 1.777-9.307 0-10.694-.205-12.636-1.865-.62-.53-1.755-1.324-2.521-1.764-.767-.439-1.52-1.019-1.674-1.288-.977-1.707-4.278-2.283-5.495-.959-.465.505-1.707 1.47-2.761 2.145s-2.402 1.647-2.996 2.16c-.593.513-1.926 1.209-2.961 1.546-1.036.338-2.103.795-2.373 1.016-1.056.868-12.325.402-14.042-.58-.823-.47-2.358-1.13-3.412-1.466-1.054-.336-2.309-.881-2.788-1.21-.479-.329-1.655-.859-2.613-1.176-.958-.317-2.369-.961-3.136-1.429a42.538 42.538 0 00-3.136-1.687c-1.048-.502-2.556-1.722-3.785-3.062a1468.012 1468.012 0 00-3.011-3.273c-.531-.575-1.281-1.673-1.665-2.439-.384-.767-1.022-1.687-1.418-2.045-.851-.769-1.655-3.128-1.977-5.795-.321-2.661-1.488-4.507-5.36-8.48-4.633-4.753-6.074-5.127-10.658-2.768-.767.394-2.561 1.064-3.987 1.487-1.426.424-3.386 1.209-4.355 1.744-.97.534-2.625 1.246-3.679 1.581-1.172.373-2.594 1.203-3.659 2.136-2.404 2.107-2.444 2.147-4.286 4.274l-1.637 1.89.014 2.988c.013 2.798.107 3.174 1.481 5.931.807 1.619 1.466 3.136 1.466 3.37 0 .235.437.871.971 1.413a20.84 20.84 0 011.723 2.03c.684.95 1.924 2.06 6.78 6.069.898.741 2.387 1.623 3.31 1.96.922.337 2.225 1.028 2.896 1.537.671.508 2.235 1.29 3.477 1.737 1.241.448 2.836 1.196 3.543 1.665 1.254.83 11.032 3.829 15.691 4.813 1.281.271 3.272.987 4.425 1.591 1.769.927 2.789 1.175 6.51 1.583 3.441.377 4.947.718 6.831 1.545 2.15.943 3.099 1.117 8.583 1.569 3.392.279 7.513.74 9.158 1.024 1.646.284 4.042.517 5.325.517 1.372 0 2.867.23 3.628.559 1.963.848 50.681.847 52.995-.001.838-.307 2.547-.558 3.798-.558 1.25 0 3.465-.23 4.921-.511 1.456-.281 5.506-.747 9-1.036 5.367-.444 6.61-.656 8.014-1.365 1.84-.93 4.207-1.463 8.028-1.809 1.825-.165 3.188-.551 4.878-1.378 1.29-.632 3.677-1.416 5.306-1.742 1.629-.327 3.511-.829 4.182-1.116.67-.286 3.225-1.038 5.678-1.669 2.802-.722 4.955-1.492 5.794-2.074.735-.51 2.257-1.253 3.381-1.654 1.125-.4 2.461-1.018 2.969-1.374.508-.355 1.919-1.095 3.136-1.643s2.894-1.567 3.726-2.266c.833-.698 1.661-1.269 1.841-1.269.603 0 7.949-7.164 7.963-7.766.003-.151.694-1.798 1.535-3.659 2.346-5.194 2.431-8.34.288-10.62-4.112-4.374-5.922-5.756-8.836-6.741-1.381-.467-3.318-1.312-4.305-1.876-.986-.565-2.644-1.204-3.684-1.422-1.04-.217-2.675-.835-3.633-1.373-1.123-.632-2.886-1.175-4.965-1.531-4.011-.687-3.505-.729-5.353.443m86.21 122.175c.002 1.15.067 1.579.145.952.077-.626.076-1.567-.004-2.09-.079-.524-.143-.011-.141 1.138m-329.637 3.833c.004.767.076 1.039.159.606.083-.434.08-1.061-.007-1.394-.087-.333-.156.022-.152.788m242.073 50c0 .651.093.744.418.418.325-.325.325-.511 0-.836-.325-.325-.418-.232-.418.418m38.483-.318c-.129.208-.06.553.153.767.285.284.388.184.388-.379 0-.841-.181-.971-.541-.388"/><path fill="#efc619" d="M154.364 112.551c-4.368 1.028-1.416 9.72 4.521 13.317.671.407 1.791 1.244 2.489 1.861 2.01 1.776 10.476 2.157 13.346.6 4.429-2.403 8.713-6.692 9.195-9.206.821-4.283.608-5.725-.969-6.569-.806-.431-26.75-.434-28.582-.003m56.15.451c-3.12 3.32 1.714 11.331 9.432 15.633 1.426.794 10.65.611 11.986-.238 7.569-4.811 11.387-10.32 9.887-14.266-.763-2.007-.179-1.936-15.999-1.936h-14.549l-.757.807m5.333 24.229c-1.784.731-2.639 1.379-3.403 2.576-.336.526-1.194 1.199-1.906 1.497-.712.298-1.611.825-1.997 1.173-2.349 2.116-12.167 3.207-17.958 1.995-3.226-.675-6.171-2.352-9.109-5.186-2.509-2.42-6.146-2.399-7.408.041-1.251 2.419-.729 5.936 1.037 6.977.662.391 1.204.927 1.204 1.191 0 .673 1.039 1.535 2.199 1.824.539.135 1.323.718 1.742 1.297.467.646 1.74 1.502 3.289 2.213 1.389.638 2.526 1.308 2.526 1.489 0 2.256 18.74 2.323 21.356.075.615-.528 2.103-1.322 3.307-1.765 1.266-.466 2.49-1.19 2.902-1.717.392-.501 1.21-1.08 1.818-1.286.718-.243 1.348-.833 1.801-1.683.384-.72 1.011-1.472 1.394-1.672 2.121-1.106 1.99-6.51-.215-8.857-.889-.946-.739-.935-2.579-.182m-62.263 7.158c-1.095.235-2.305.712-2.689 1.06-.384.347-1.67 1.122-2.857 1.72-3.462 1.746-3.502 1.85-3.702 9.509-.094 3.609-.288 6.781-.432 7.049-.522.974-3.531 1.778-6.655 1.778-2.516 0-3.092.108-3.603.673-1.021 1.127-4.851 2.462-7.082 2.468-2.79.008-2.773-.018-2.923 4.436-.131 3.874-.146 3.932-1.251 5.037l-1.119 1.119-1.14-.828c-.866-.628-1.006-.666-.58-.159 1.268 1.511 2.348 3.918 2.565 5.721.322 2.667 1.126 5.026 1.977 5.795.396.358 1.034 1.278 1.418 2.045.384.766 1.134 1.864 1.665 2.439.532.575 1.887 2.048 3.011 3.273 1.229 1.34 2.737 2.56 3.785 3.062a42.538 42.538 0 013.136 1.687c.767.468 2.178 1.112 3.136 1.429.958.317 2.134.847 2.613 1.176.479.329 1.734.874 2.788 1.21 1.054.336 2.589.996 3.412 1.466 1.717.982 12.986 1.448 14.042.58.27-.221 1.337-.678 2.373-1.016 1.035-.337 2.368-1.033 2.961-1.546.594-.513 1.942-1.485 2.996-2.16s2.296-1.64 2.761-2.145c.48-.522 1.232-.925 1.742-.933l.897-.014-1.132-.969c-1.313-1.124-1.365-1.399-.481-2.527.358-.457.764-1.38.902-2.05.346-1.689 2.401-4.732 3.573-5.292 1.626-.777 1.621-6.626-.007-9.046-.432-.642-.992-1.873-1.243-2.736-.699-2.394-1.44-3.786-2.131-4.005-.344-.11-.825-.681-1.069-1.271-.499-1.204-3.907-4.848-5.142-5.498l-.807-.424.066-8.774c.075-9.9.096-9.796-2.472-11.909-2.388-1.965-8.006-2.569-13.302-1.43m74.826.011c-1.759.486-2.334 1-4.389 3.921-1.19 1.691-1.244 2.079-.415 2.994.527.581.625 1.576.719 7.321.125 7.611.056 8.102-1.17 8.41-.491.123-1.197.74-1.57 1.373-.373.632-1.055 1.351-1.515 1.597-.46.246-1.103 1.039-1.429 1.762-.326.722-1.043 1.647-1.594 2.054-.743.549-1.196 1.392-1.753 3.262-.414 1.388-1.084 2.888-1.49 3.334-.637.7-.753 1.32-.847 4.529l-.11 3.719 1.32.697c1.541.813 2.631 2.577 3.22 5.207.228 1.021.722 2.134 1.096 2.473.962.871.852 1.261-.63 2.231l-1.302.851 1.214.254c.667.139 1.549.643 1.958 1.119.41.476 1.431 1.291 2.271 1.811.839.519 1.996 1.386 2.57 1.926 3.617 3.397 15.422 4.566 20.427 2.023 1.078-.548 2.201-.996 2.497-.996.296 0 1.531-.525 2.744-1.167 1.214-.641 3.021-1.435 4.017-1.763.995-.329 2.171-.88 2.613-1.226.442-.346 1.747-1.104 2.9-1.685 2.738-1.379 5.895-4.886 10.253-11.389.866-1.292 1.312-3.353 1.627-7.526.22-2.926.378-3.488 1.462-5.203 1.058-1.676 1.1-1.818.325-1.109-1.655 1.514-3.394-.465-3.394-3.863 0-2.583-.2-2.7-4.61-2.7-4.072 0-7.385-.943-8.699-2.477-.358-.417-1.319-.808-2.439-.992-5.388-.883-5.158-.533-5.16-7.822-.003-8.399.248-7.897-6.384-12.751-1.005-.735-11.851-.886-14.333-.199m-63.763 3.792c2.941 1.139 2.986 1.278 2.871 8.951-.117 7.816-.494 9.063-2.487 8.231-1.5-.627-9.474-1.032-12.551-.638-2.224.285-2.465.25-3.31-.479l-.912-.786.004-6.682.005-6.683.973-.837a3.427 3.427 0 012.26-.844c.708-.003 2.071-.225 3.03-.491 2.909-.81 7.675-.688 10.117.258m77.513-.092c3.144 1.17 3.138 1.152 3.125 8.646-.015 8.621.76 7.864-8.1 7.917-5.633.034-7.31.155-8.365.604l-1.319.562-.683-1.12c-.848-1.391-1.062-14.834-.247-15.51 2.305-1.913 11.634-2.571 15.589-1.099M94.471 160.147c-.35.396-.373.641-.087.927.214.214.401.319.415.233.015-.087.092-.51.172-.941.171-.918.133-.934-.5-.219m-1.127.48c-.026.288-.021.66.009.829.031.168-.303.215-.742.104-.715-.18-.737-.154-.202.246.476.357.511.546.175.925-.351.394-.328.404.131.06.305-.229.683-.299.84-.157.157.142.168.055.025-.193-.143-.248-.099-.645.098-.883.226-.271.239-.621.036-.943-.283-.446-.329-.444-.37.012m-8.267 2.822c-.253.404-.277.662-.063.662.194 0 .352-.145.352-.322 0-.178.274-.379.61-.446.527-.107.536-.152.062-.339-.335-.132-.709.041-.961.445m-1.379.565c-.247.341-.34.4-.208.131.159-.322.102-.403-.167-.237-.224.138-.311.408-.193.599s-.046.539-.366.773c-.526.384-.512.424.139.424.397 0 .721-.132.721-.294 0-.162.196-.172.435-.022.724.452 1.191.414 1.191-.096 0-.266-.082-.402-.183-.301-.1.1-.348-.218-.551-.707-.344-.828-.401-.846-.818-.27m-4.054 1.796c-.104.168.217.305.713.305.638 0 .763-.088.429-.3-.606-.384-.907-.385-1.142-.005m204.177.346c-.725.156-1.231.618-1.742 1.588-.486.922-1.085 1.489-1.841 1.742-.617.206-1.401.671-1.742 1.033-.342.363-.423.548-.18.412.84-.471 7.131.85 8.966 1.882.958.539 2.593 1.158 3.633 1.375 1.04.218 2.698.857 3.684 1.422.987.564 2.924 1.409 4.305 1.876 2.914.985 4.724 2.367 8.836 6.741 2.143 2.28 2.058 5.426-.288 10.62-.841 1.861-1.532 3.508-1.535 3.659-.014.602-7.36 7.766-7.963 7.766-.18 0-1.008.571-1.841 1.269-.832.699-2.509 1.718-3.726 2.266s-2.628 1.288-3.136 1.643c-.508.356-1.844.974-2.969 1.374-1.124.401-2.646 1.144-3.381 1.654-.839.582-2.992 1.352-5.794 2.074-2.453.631-5.008 1.383-5.678 1.669-.671.287-2.553.789-4.182 1.116-1.629.326-4.016 1.11-5.306 1.742-1.69.827-3.053 1.213-4.878 1.378-3.821.346-6.188.879-8.028 1.809-1.404.709-2.647.921-8.014 1.365-3.494.289-7.544.755-9 1.036-1.456.281-3.671.511-4.921.511-1.251 0-2.96.251-3.798.558-2.314.848-51.032.849-52.995.001-.761-.329-2.256-.559-3.628-.559-1.283 0-3.679-.233-5.325-.517-1.645-.284-5.766-.745-9.158-1.024-5.484-.452-6.433-.626-8.583-1.569-1.884-.827-3.39-1.168-6.831-1.545-3.721-.408-4.741-.656-6.51-1.583-1.153-.604-3.144-1.32-4.425-1.591-4.659-.984-14.437-3.983-15.691-4.813-.707-.469-2.302-1.217-3.543-1.665-1.242-.447-2.806-1.229-3.477-1.737-.671-.509-1.974-1.2-2.896-1.537-.923-.337-2.412-1.219-3.31-1.96-4.856-4.009-6.096-5.119-6.78-6.069a20.84 20.84 0 00-1.723-2.03c-.534-.542-.971-1.178-.971-1.413 0-.234-.659-1.751-1.466-3.37-1.374-2.757-1.468-3.133-1.481-5.931l-.014-2.988 1.637-1.89c1.842-2.127 1.882-2.167 4.286-4.274 1.065-.933 2.487-1.763 3.659-2.136 1.054-.335 2.709-1.047 3.679-1.581.969-.535 2.929-1.32 4.355-1.744 1.426-.423 3.22-1.093 3.987-1.487 1.717-.884 4.928-1.67 5.665-1.387 1.589.61-.272-.761-2.294-1.69-3.186-1.464-6.056-1.296-9.035.528a11.445 11.445 0 01-4.209 1.573c-1.214.192-2.782.659-3.484 1.038-2.714 1.465-3.532 1.763-5.85 2.133-1.754.279-2.864.703-4.143 1.582-1.274.876-2.497 1.345-4.522 1.732-2.22.425-2.956.729-3.678 1.519-.907.994-2.195 1.538-4.586 1.939-.876.147-1.523.541-2.009 1.224-.715 1.004-1.828 1.504-4.243 1.908-.873.146-1.542.565-2.133 1.336-.52.679-1.571 1.397-2.66 1.815-.99.38-2.218 1.127-2.729 1.66-.511.533-1.505 1.125-2.211 1.315-2.256.607-4.35 3.572-4.647 6.578-.334 3.398-.688 4.421-2.047 5.925-.733.811-1.266 1.828-1.402 2.674-.327 2.035-8.629 11.417-12.406 14.02-.657.452-1.483 1.19-1.837 1.64-.354.45-1.54 1.153-2.636 1.563-1.12.419-2.375 1.196-2.866 1.775-.754.886-1.305 1.103-3.99 1.565-1.714.294-3.389.682-3.723.861-1.688.903-9.712-.613-9.712-1.836 0-.639-2.236-1.318-2.544-.773-.423.751-.902.593-1.146-.377-.12-.479-.339-.871-.486-.871-.371 0-.342 1.788.04 2.515.247.469.095.711-.709 1.127-.786.406-1.064.429-1.198.099-.101-.251-.185-.176-.201.179a.653.653 0 01-.638.615c-.413.004-.475.091-.192.271.262.167.303.448.111.76-.177.286-.172.745.012 1.088.228.426.166.652-.218.799-.383.148-.444.369-.213.781.45.805.125 1.774-.664 1.98-1.079.282-1.036 32.295.043 32.295.587 0 .694.2.628 1.177-.043.647.185 1.579.508 2.072.358.546.453.979.243 1.109a.752.752 0 00-.317.628c.02.299.076.293.203-.021.097-.239.319-.435.495-.435s.28.196.232.435c-.048.24.109.397.349.349.239-.048.435.095.435.319s.099.308.22.187c.449-.449 1.59.503 1.414 1.179-.114.433.004.667.336.667.281 0 .42.146.31.324-.11.178-.039.424.159.547.198.122.284.345.191.496-.093.151.218.2.691.11.473-.091.861-.029.861.137s.394.325.876.353c1.457.084 2.648.474 2.446.801-.105.169-.058.361.106.425.163.064.527.587.809 1.162.282.575.727.996.99.937 1.056-.241 2.166.3 1.991.969-.11.422-.019.597.256.491.54-.207 1.372.76 1.072 1.246-.124.2-.068.364.123.364.192 0 .45-.164.574-.365.158-.255.36-.255.668.001.242.201.895.435 1.449.52 1.832.28 2.231.404 2.65.823.228.228.294.415.146.415s-.021.248.282.55c.303.303.449.715.325.916-.156.252-.028.254.414.006.427-.239.935-.243 1.529-.013 1.562.606 2.239.708 4.266.649 1.698-.05 1.986.032 1.999.571.037 1.504.176 1.85.741 1.85 1.841 0 2.062.775 2.157 7.577.049 3.496.201 6.358.339 6.359.138.001.171.208.075.46-.283.736.654 2.156 1.417 2.146 1.295-.016 1.698.85 1.544 3.319-.11 1.771 1.125 3.484 2.512 3.484.524 0 .669.247.665 1.133-.008 2.377.167 4.093.418 4.093.144.001.262.245.262.544 0 .299.146.453.324.343a.38.38 0 01.523.121c.109.176.512.239.895.139.44-.115.706-.007.723.294.015.262.092.79.171 1.173.079.383.18 1.05.224 1.481.043.431.202.784.351.784.15 0 .273.157.273.348 0 .192.313.662.697 1.046.383.383.697.599.697.48 0-.12.235-.022.522.216.288.239.523.729.523 1.088 0 .36.196.657.435.66.291.003.262.118-.087.343-.403.261-.414.339-.05.343.284.003.39.222.266.546-.124.323-.063.451.152.319.198-.123.618-.013.934.243.491.398.529.389.261-.057-.26-.434-.168-.427.543.042.511.337.856.9.856 1.394 0 .456.199.956.443 1.111.243.156.368.404.277.552-.168.271-.06.303 1.567.468.519.053 1.372.637 2.038 1.397.63.718 1.276 1.225 1.434 1.127.159-.098.389.138.511.524.123.386.369.702.548.702.179 0 .325.157.325.348 0 .327 1.292 1.802 1.481 1.691.223-.131 1.655.476 1.655.702 0 .14.528.193 1.174.118 1.103-.129 1.189-.063 1.403 1.08.273 1.456 1.054 2.189 2.175 2.042.561-.074.823.066.823.44 0 .301.146.547.325.547.178 0 .419.297.534.66.231.728 1.965 1.571 3.32 1.614 1.569.049 2.843.569 2.647 1.08-.101.263-.07.479.07.479.139 0 .683.398 1.208.885.525.487.955.713.955.502 0-.21.131-.302.291-.203.635.393 2.781.651 4.848.584 2.056-.067 2.18-.026 2.213.736.034.798.037.797.313-.065.268-.835.281-.839.314-.087l.035.784h18.815c18.789 0 18.815-.001 18.815-.72 0-.668.187-.717 2.527-.665 2.367.052 4.193-.162 4.853-.57.157-.097.286.001.286.217 0 .235.212.182.525-.131.288-.288.829-.621 1.201-.739.392-.124.6-.418.493-.696-.253-.658 1.576-1.557 2.857-1.406.562.067 1.374-.104 1.806-.38.607-.388.789-.401.807-.057.013.244.205.051.426-.428s.563-.986.76-1.127c.223-.159.177-.258-.12-.261-.392-.005-.398-.102-.03-.546.247-.297.776-.515 1.175-.484.4.031.845.019.988-.026.144-.045.458-.102.697-.126.24-.023.436-.226.436-.45 0-.223.107-.513.237-.643.131-.131.147-.473.037-.761-.222-.577.443-1.137 1.358-1.145.323-.003 1.029-.174 1.568-.379.54-.205 1.059-.377 1.155-.382.418-.024 1.382-.682 1.334-.91-.252-1.199 1.392-2.785 2.129-2.053.316.313.352.253.157-.259-.172-.451-.128-.589.136-.426.216.134.56-.075.769-.465.208-.389.283-.707.167-.707-.553 0 .88-1.01 1.45-1.022 1.532-.032 1.872-.174 1.872-.778 0-.351.175-.639.389-.639.215 0 .309-.306.21-.684-.214-.82.335-1.294 1.405-1.213.431.033.784-.075.784-.241 0-.165.202-.301.448-.301.403 0 .565-.498.677-2.086.034-.491.965-1.683.965-1.236 0 .116.312.044.694-.16.381-.204.67-.484.643-.622-.028-.138.23-.878.572-1.645.342-.766.612-1.84.599-2.387-.02-.815.096-.961.65-.816.371.097.675.034.675-.14 0-.173.229-.315.509-.315.308 0 .66-.587.889-1.481.208-.815.437-1.658.508-1.874.072-.216-.009-.533-.18-.703-.705-.705.066-1.735 1.608-2.147.849-.227 1.561-.61 1.581-.85.02-.24.06-.75.087-1.134.068-.947 64.162-1.121 64.162-.174 0 .848 1.28 2.091 2.153 2.091.864 0 .842-.086 1.011 3.994.039.952.246 1.788.459 1.859.214.072.285.297.158.502-.131.212-.067.272.148.139a.434.434 0 01.6.126c.123.198.37.269.55.157.679-.419 1.733.204 1.399.828-.212.397-.122.987.276 1.806.656 1.349.737 1.578.737 2.093 0 .194.554.618 1.23.94.763.364 1.162.766 1.049 1.059-.099.259.131.806.512 1.215.382.409.696.989.699 1.288.004.479.046.481.343.022.225-.349.339-.378.343-.087.003.239.123.417.267.394.678-.107.984.092 1.004.651.055 1.548 1.042 2.474 2.868 2.69.822.097 1.527.809 1.248 1.261-.19.307.7 1.048 1.379 1.147.714.105 1.976 1.286 1.755 1.643-.28.452 1.16 1.708 1.958 1.708.453 0 .626.148.469.403-.153.246-.096.307.145.158.955-.59 3.21.466 3.134 1.467-.104 1.364.21 1.685 1.704 1.741 1.27.047 2.695 1.116 1.859 1.395-.199.066-.1.376.225.701.32.32.608.503.64.407.032-.096.324.046.648.315s1.328.548 2.231.621c2.421.194 2.527.211 2.355.383-.086.087.072.387.352.667.28.28.42.655.31.832-.11.178.085.428.432.556.348.129.762.402.92.608.2.259.342.24.465-.064.098-.241.293-.367.434-.28.553.342 2.41.6 4.736.657 2.089.052 2.432.148 2.391.67-.046.574 1.074.61 19.038.61s19.083-.036 19.038-.61c-.042-.524.276-.609 2.27-.609 1.276 0 2.263-.091 2.194-.202-.069-.111.221-.173.643-.138.422.035 1.147-.076 1.61-.247.593-.219.926-.179 1.127.138.231.364.286.362.29-.009.004-.273.321-.413.79-.348.637.088.763-.038.675-.675-.066-.469.075-.786.348-.79.36-.004.354-.07-.024-.31-.509-.322.974-.808 2.746-.901 1.865-.098 3.181-.838 3.426-1.926.212-.938.878-1.445 1.694-1.289.769.147 2.389-.835 2.007-1.217-.607-.607.605-2.086 1.59-1.942.572.084 1.039.034 1.039-.112 0-.232 1.427-.845 1.655-.711.192.112 1.363-1.183 1.257-1.389-.179-.344 1.292-2.071 1.601-1.88.295.182 1.759-.952 1.759-1.362 0-.476 1.045-1.283 1.387-1.071.191.118.778-.186 1.306-.675.527-.489 1.117-.891 1.311-.894.193-.003.144-.137-.11-.298-.602-.382.38-1.439 1.337-1.439.358 0 .75-.159.87-.354.121-.195.389-.249.597-.12.226.139.278.071.13-.169-.139-.225-.048-.405.207-.407.306-.004.331-.091.079-.262-.452-.306.041-2.521.562-2.521h.512c.334 0 1.457-1.221 1.336-1.452-.068-.129.108-.464.39-.746.282-.282.551-1.086.598-1.788.091-1.352.671-2.109 1.41-1.84.6.218 2.011-1.098 1.791-1.671-.227-.591.857-2.688 1.261-2.438.17.105.53-.124.8-.51.27-.385.633-.586.808-.447.174.14.133.04-.093-.22-.293-.339-.309-.735-.056-1.388.572-1.478.702-2.198.76-4.224.052-1.83.099-1.922 1.041-2.03 1.168-.133 2.005-1.753 1.972-3.816-.071-4.413-.036-6.174.179-9.074l.241-3.246 1.103.095c.607.052 1.297-.025 1.534-.171.237-.147.431-.16.431-.029s.235.042.522-.196c.422-.35.524-.341.528.044.005.404.053.404.31-.002.177-.28.488-.366.745-.207.287.177.354.132.193-.13-.14-.225-.048-.404.207-.407.369-.005.367-.062-.009-.301-1.183-.749.212-1.831 2.287-1.774 2.982.082 3.78-.27 4.496-1.983.459-1.099.609-1.187 1.968-1.152 1.796.047 3.538-.23 4.424-.704.442-.237.734-.238.878-.005.322.52.878.422.671-.118-.211-.55.719-1.427 1.199-1.13.185.114.252-.096.153-.477-.182-.697.905-1.242 1.984-.996.263.059.708-.362.99-.937.282-.575.684-1.16.894-1.301.21-.141.233-.259.051-.262-1.034-.016.561-.678 1.812-.751.814-.048 1.48-.231 1.48-.408 0-.176.388-.247.861-.156.473.09.784.041.691-.11-.093-.151-.007-.374.191-.496.198-.123.269-.369.159-.547-.11-.178.029-.324.31-.324.352 0 .449-.235.314-.752-.124-.477-.062-.668.171-.524.201.124.46-.018.575-.316.114-.299.366-.446.559-.326.193.119.351.051.351-.152 0-.203.196-.33.435-.282.24.048.397-.109.349-.349-.048-.239.056-.435.232-.435.176 0 .398.196.495.435.127.314.183.32.203.021a.756.756 0 00-.322-.631c-.623-.385.309-1.567 1.236-1.567h.862l-.09-17.494c-.088-17.158-.104-17.496-.787-17.682-.506-.138-.702-.495-.715-1.301-.01-.61.108-1.032.261-.937.154.095.28.006.28-.197 0-.202-.241-.369-.535-.369-.408 0-.455-.149-.199-.628.197-.368.21-.833.031-1.123-.192-.312-.151-.593.111-.76.283-.18.221-.267-.192-.271a.653.653 0 01-.638-.615c-.016-.355-.1-.43-.201-.179-.134.33-.412.307-1.198-.099-.804-.416-.956-.658-.709-1.127.382-.727.411-2.515.04-2.515-.147 0-.366.392-.486.871-.241.96-.817 1.152-1.116.371-.246-.64-1.061-.356-2.4.834-1.965 1.748-7.947 2.819-9.902 1.772-.44-.236-2.156-.644-3.811-.908-2.607-.415-3.129-.618-3.886-1.509-.492-.579-1.746-1.355-2.866-1.775-1.096-.41-2.282-1.113-2.636-1.563-.354-.45-1.18-1.188-1.837-1.64-3.777-2.603-12.079-11.985-12.406-14.02-.136-.846-.669-1.863-1.402-2.674-1.36-1.505-1.713-2.527-2.048-5.932-.29-2.945-2.74-6.579-4.434-6.579-.375 0-1.181-.529-1.791-1.176-.61-.646-1.488-1.296-1.953-1.443-1.116-.354-3.467-1.921-3.467-2.311 0-.37-1.7-1.127-3.788-1.685-.838-.224-1.9-.784-2.359-1.244-1.099-1.098-1.752-1.42-3.446-1.7-.811-.135-2.051-.745-2.934-1.443-.841-.665-1.855-1.278-2.253-1.362-.399-.084-1.617-.324-2.707-.535-1.395-.269-2.272-.677-2.961-1.38-.786-.799-1.565-1.108-3.924-1.553-1.808-.342-3.671-.966-4.828-1.62-1.094-.617-3-1.273-4.547-1.564-2.941-.554-4.316-1.019-5.625-1.902-.987-.666-3.219-1.217-6.818-1.684-1.547-.201-3.259-.722-4.606-1.403-2.178-1.099-2.588-1.172-4.407-.78m39.872.317c0 .449.216.774.512.774.33 0 .442.217.316.61-.159.492-.128.513.158.11.295-.417.448-.423.908-.041.382.316.446.589.207.877-.244.294-.193.419.17.419.284 0 .519-.17.522-.378.003-.207.142-.162.308.101.167.263.517.406.779.319.306-.103.103-.362-.57-.726-.574-.311-.81-.575-.522-.585.453-.017.455-.062.016-.34-.278-.176-.655-.227-.838-.114-.197.121-.246-.138-.121-.633.194-.769.173-.786-.26-.208-.449.599-.499.591-1.028-.165l-.557-.794v.774m7.382 3.465c.26.313.27.447.029.378-.205-.059-.349.047-.32.235.029.188.209.36.401.382l.784.094c.239.029.435.288.435.576 0 .287.155.522.345.522.189 0 .313-.376.275-.837-.05-.599-.247-.802-.693-.716-.41.079-.624-.092-.624-.499 0-.34-.232-.619-.517-.619-.402 0-.427.108-.115.484M62.238 173.01c-.288.752-.287.756.245.96.29.112.444-.066.413-.478-.067-.914-.399-1.157-.658-.482m-1.792.869c-.19.308 1.104 1.498 1.729 1.589.369.055.353-.133-.077-.882-.516-.899-1.321-1.243-1.652-.707m-.327 1.358c-.238.385.312.801.634.479.331-.331.269-.803-.105-.803-.181 0-.418.146-.529.324m287.965 3.586c0 .089.407.618.904 1.175.604.676.784.771.542.287-.346-.692-1.446-1.804-1.446-1.462M2.787 189.436c0 .194-.342.506-.761.693-.723.322-.728.352-.098.594.365.14.554.144.419.009-.135-.135.026-.444.358-.686.332-.243.487-.559.343-.703-.143-.143-.261-.102-.261.093m394.787 31.453c-.378.524-.582.591-.814.27-.205-.282-.238-.205-.097.227.3.919-.432 1.749-1.073 1.217-.383-.318-.441-.29-.278.136.288.75 1.462.996 1.707.357.12-.313.426-.433.768-.302.476.183.497.131.129-.312-.347-.418-.35-.639-.016-1.042.233-.281.368-.677.3-.88-.067-.204-.349-.056-.626.329m-395.34.584c.119.311.035.785-.187 1.053-.323.389-.289.443.166.268.342-.131.648-.011.768.302.213.555 1.549.417 1.549-.161 0-.18-.139-.242-.309-.137-.493.304-1.118-.695-.884-1.412.176-.54.147-.563-.163-.132-.256.356-.378.384-.381.087-.003-.239-.179-.435-.391-.435-.213 0-.289.254-.168.567"/><path fill="#fadc63" d="M184.843 37.122c-2.43.702-4.797 1.177-7.791 1.564-1.726.223-3.149.662-4.355 1.344-.985.558-2.919 1.329-4.298 1.714s-3.025 1.088-3.659 1.562c-.633.473-1.909 1.19-2.835 1.593-.926.402-2.163 1.135-2.75 1.629-.586.494-1.789 1.267-2.672 1.719-.883.453-1.8 1.146-2.038 1.541-.239.395-1.028 1.022-1.755 1.392-1.327.677-6.315 5.718-8.038 8.123-.508.709-1.257 1.47-1.663 1.69-.407.221-1.083 1.012-1.503 1.759-.42.747-1.066 1.52-1.435 1.718-.369.197-.93.864-1.246 1.481-.316.617-1.033 1.649-1.593 2.292-.561.643-1.402 1.976-1.869 2.962-.467.985-1.23 2.235-1.696 2.777-.466.542-1.133 1.714-1.481 2.606-.348.891-1.152 2.643-1.786 3.893-.635 1.249-1.673 4.232-2.308 6.627-.635 2.395-1.492 5-1.905 5.788-1.062 2.025-1.396 7.513-1.462 24.003-.07 17.462-.495 37.369-.823 38.553-.246.887 2.4 8.445 3.366 9.613.706.854.021 1.486-1.611 1.486-3.464 0-4.383 1.266-4.383 6.043 0 3.72-.068 3.84-1.857 3.291-1.355-.416-3.306-2.337-8.536-8.406-1.597-1.852-3.045-3.368-3.219-3.368-.174 0-.716-.633-1.204-1.407-.489-.773-1.236-1.54-1.66-1.704a124.06 124.06 0 01-2.314-.938c-.849-.353-1.907-.595-2.352-.536-.478.062-.809-.076-.809-.337 0-.345-.093-.35-.418-.025-.23.23-.7.418-1.045.418s-.627.148-.627.328c0 .181-.287.274-.637.206-.703-.135-.822.934-.176 1.58.723.723.129 2.007-.877 1.896-.508-.057-1.039.076-1.18.295-.173.269-.259.229-.266-.124-.01-.465-.049-.465-.349 0-.28.434-.339.404-.348-.174-.009-.578-.068-.608-.349-.174-.225.348-.339.377-.343.087-.003-.24-.24-.436-.528-.436-.287 0-.525.196-.528.436-.004.339-.068.336-.289-.012-.17-.268-.541-.349-.923-.202-.441.169-.561.119-.387-.163.16-.259-.002-.407-.445-.407-.838 0-1.258.549-.69.901.255.157.315.101.16-.151-.137-.221-.083-.402.12-.402s.369.131.369.291c0 .632-.505.732-1.247.246-.72-.472-.823-.445-1.343.347-.309.472-.402.858-.205.858.591 0 .4 1.201-.284 1.787-.41.351-1.161.515-2.093.455-.963-.061-1.375.033-1.223.281.14.226.066.27-.188.113-.283-.174-.307-.394-.074-.675.229-.276.224-.588-.016-.927-.284-.401-.312-.361-.134.186.183.559.141.611-.211.261-.741-.735-1.419-.533-1.171.349.173.613.141.67-.145.261-.201-.288-.368-.386-.371-.219-.003.167-.223.124-.488-.096-.668-.554-.97 1.505-.342 2.332.602.791.6 1.307-.003.807-.514-.427-1.725-.153-1.43.324.098.159.015.389-.185.512-.199.124-.319.017-.267-.237.053-.255-.175-.44-.51-.414-.333.027-.533-.07-.444-.213.263-.426-2.758-.304-3.051.123-.185.271-.411.204-.735-.219-.586-.764-1.224-.771-2.287-.027-.609.427-.754.451-.54.088.16-.273-.049-.198-.465.168-.837.733-.996 1.08-.321.699.336-.19.342-.145.025.198-.282.305-.309.729-.085 1.358.306.861.295.874-.2.237-.288-.372-.525-.529-.527-.348-.001.18-.706.347-1.566.371-.86.024-1.775.218-2.033.432s-.607.273-.774.131c-.168-.142-.107.003.136.321.341.448.346.637.021.838-.23.142-.333.117-.227-.056.4-.659-.689-1.196-1.186-.584-.407.5-.383.542.183.33.488-.184.598-.114.446.283-.111.289-.05.526.135.526.186 0 .338.297.338.66 0 .729-.882 1.221-1.512.843-.223-.134-.186.026.081.355.267.329.384.699.261.822s-.224.031-.224-.206c0-.281-.259-.348-.749-.192-.604.192-.706.125-.527-.343.156-.408.094-.499-.209-.307-.666.424-1.106.349-1.365-.23-.196-.44-.241-.427-.261.079-.014.336-.191.61-.394.61s-.282-.14-.176-.312c.106-.171-.054-.407-.356-.523-.928-.356-1.274-.236-1.044.362.169.442.115.485-.239.192-.486-.404-1.486.675-1.04 1.122.511.511.304 1.498-.283 1.345-.327-.086-.701.014-.829.223-.129.208-.059.379.155.379s.291.159.171.354c-.121.194-.365.264-.543.153-.179-.11-.325.044-.325.343 0 .299-.196.546-.435.549-.295.003-.27.11.077.329.439.278.427.358-.087.555-.33.126-.6.518-.6.869 0 .352-.181.751-.402.888-.25.154-.308.095-.154-.154.157-.253-.013-.402-.458-.402-.52 0-.651.16-.496.61.171.495.105.478-.348-.088-.531-.662-.559-.664-.57-.044-.01.568-.086.59-.591.174-.524-.432-.541-.405-.174.283.501.94.508 1.155.037 1.155-.203 0-.298-.117-.211-.261.206-.341-.675-1.155-.951-.879-.117.116-.212-.041-.212-.349s.16-.659.354-.779c.195-.12.264-.365.154-.543-.303-.491-1.439-.389-2.009.182-.279.278-.6.412-.714.298-.114-.114-.449-.006-.746.24-.454.377-.504.358-.321-.121.371-.966-.816-1.095-1.623-.177-.397.452-.63.636-.516.41a.506.506 0 00-.172-.645c-.207-.128-.291-.459-.185-.734.117-.306-.111-.623-.586-.814-.6-.241-.639-.318-.169-.335.737-.027.769-.262.123-.908-.417-.417-.562-.376-1.008.287-.518.769-.52.768-.344-.185.135-.724.04-.958-.385-.958-.349 0-.567.298-.574.784-.01.7-.049.718-.366.174-.46-.79-1.047-.79-.821 0 .095.335-.019.241-.254-.209-.375-.718-.579-.785-1.666-.548-.681.148-4.844.286-9.252.305-4.407.019-8.234.173-8.503.341-.331.207-.411.178-.247-.086.359-.581-1.477-.933-2.618-.503-.702.265-1.02.256-1.159-.034-.138-.289-.247-.279-.394.036-.124.267-.528.354-1.045.224-1.188-.298-1.05.176.175.603.56.195 1.107.587 1.216.871.132.346.055.431-.234.258-.329-.198-.338-.141-.039.243.235.301.28.782.112 1.199-.155.383-.292.56-.305.393-.014-.167-.221-.152-.461.033-.604.468-1.728.845-1.521.511.44-.711-1.111-1.067-1.719-.395-.337.373-.777.678-.977.678-.223 0-.203-.162.054-.418.23-.23.418-.622.418-.872 0-.561-.915-.598-1.253-.05-.167.269-.087.31.241.123.403-.23.41-.194.039.204-.383.412-.499.407-.779-.036-.295-.467-.488-.245-.38.439.023.144-.076.243-.22.22-.684-.108-.906.085-.439.381.443.279.448.395.036.778-.4.372-.435.36-.202-.072.167-.311.152-.404-.036-.23-.175.161-.333.553-.353.871-.019.318-.059 1.009-.087 1.536-.028.527-.187.958-.352.958-.165 0-.231-.358-.147-.796.119-.623-.006-.796-.571-.796-.398 0-.724.201-.724.448 0 .246-.173.448-.385.448-.224 0-.288-.257-.154-.61.192-.504.153-.53-.224-.151-.376.379-.345.541.178.927.605.448.602.478-.087.697-.397.126-.721.384-.721.574 0 .19.139.26.308.155.291-.179.862 1.043.77 1.645-.023.151.113.566.303.921.254.474.208.761-.169 1.074-.284.235-.516.862-.516 1.393 0 1.135-.874 1.621-1.373.764-.191-.327-.352-.404-.358-.17-.022.863-1.02.003-1.123-.968-.083-.775-.222-.934-.607-.694-.435.272-.435.392 0 .919.385.466.4.639.064.752-.239.081-.433.408-.43.727.004.472.063.489.313.095.429-.677 1.561-.2 1.278.538-.191.497-.14.508.399.091.52-.403.512-.355-.046.299-.643.754-1.498 1.108-1.093.453.11-.178.067-.406-.096-.507-.297-.184-.379.088-.513 1.703-.04.479-.23.873-.421.876-.192.003-.118.152.165.33.337.214.615.182.81-.092.208-.292.251-.26.143.105-.084.288-.014.794.156 1.125.235.456.188.555-.194.408-.512-.196-.589.643-.103 1.128.133.134.242 1.675.242 3.425 0 2.08.151 3.335.436 3.621.349.352.303.389-.232.185-.52-.198-.599-.145-.36.241.374.603.456 3.805.097 3.805-.653 0-.992 2.607-.396 3.048.324.24.412.436.197.436-.51 0-.864 1.136-.584 1.867.121.315.387.572.591.572.203 0 .68.274 1.058.61.668.591.676.586.277-.175-.227-.431-.623-.784-.881-.784-.768 0-.906-1.245-.144-1.302.359-.027.563.096.453.274-.11.178.044.23.341.116.297-.114.541-.03.541.187s.392.543.871.725c.581.221.871.599.871 1.134 0 1.039.996 1.873 2.479 2.077 1.426.196 2.166.389 2.399.624 2.754 2.785 7.517 3.249 10.032.976.864-.78 1.947-1.381 2.752-1.527 1.707-.308 2.479-.7 3.766-1.913.575-.542 1.671-1.19 2.435-1.439.906-.296 1.433-.696 1.517-1.151.193-1.053 1.11-1.916 2.034-1.916.587 0 .925-.278 1.166-.959.579-1.634.903-1.997 1.945-2.18.734-.129 1.103-.461 1.356-1.22.52-1.554.78-1.838 1.91-2.086.85-.187 1.071-.45 1.264-1.508.139-.767.762-1.86 1.552-2.725.99-1.084 1.38-1.865 1.565-3.136.346-2.373 1.122-4.173 2.064-4.791.672-.439.845-.948 1.049-3.069.297-3.098.739-3.855 2.568-4.403 1.011-.303 1.358-.57 1.217-.937-.108-.282-.028-.513.178-.513s.294-.21.196-.466c-.099-.257.063-.668.359-.914s.538-.298.538-.115c0 .593 4.205-.376 4.727-1.09.263-.359.406-.769.318-.911-.247-.401.857-1.169 1.875-1.305 1.39-.185 3.882-1.375 3.882-1.853 0-.259-.303-.165-.784.242l-.784.663.666-.786c.366-.432.745-.706.842-.609.098.098.425-.044.728-.315s1.796-.624 3.318-.785c2.707-.286 2.772-.315 3.043-1.366.33-1.276 1.222-1.733 3.598-1.844 2.434-.113 2.929-.315 3.175-1.296.254-1.011 1.187-1.578 2.9-1.763 3.333-.36 4.213-.543 4.459-.925.975-1.514 4.358-2.673 7.821-2.678.705-.001 1.489-.198 1.742-.438 2.036-1.926 6.741-3.262 10.913-3.098 2.45.096 5.75 2.299 5.75 3.838 0 .19.326.449.724.576.399.126 2.293 1.771 4.209 3.654 6.875 6.755 7.337 6.732 7.61-.394.201-5.248.368-5.534 3.22-5.534 4.561 0 5.384-2.652 2.014-6.49-.573-.653-1.136-1.616-1.251-2.14a27.323 27.323 0 00-.527-1.962c-.545-1.721-.375-23.988.208-27.213.362-2.006.509-5.716.523-13.24.02-11.027.221-12.898 1.719-15.991.454-.94.95-3.128 1.278-5.649.469-3.6.658-4.253 1.51-5.224.554-.63 1.164-1.915 1.413-2.976.531-2.261.852-2.924 2.134-4.4.544-.626 1.083-1.567 1.197-2.09.394-1.809.921-2.837 1.723-3.362.443-.29 1.21-1.384 1.705-2.431.496-1.047 1.361-2.231 1.923-2.632.562-.4 1.203-1.277 1.425-1.948.285-.864.738-1.362 1.545-1.699.753-.315 1.273-.85 1.523-1.568.209-.599.845-1.357 1.414-1.683.568-.326 1.275-1.1 1.57-1.719.295-.619 1.001-1.366 1.568-1.659.567-.294 1.37-1.01 1.784-1.591.415-.582 1.289-1.282 1.943-1.556.655-.273 1.372-.897 1.595-1.386.295-.647.931-1.054 2.343-1.499 1.3-.409 2.343-1.04 3.167-1.916.781-.829 1.675-1.387 2.449-1.527 1.536-.277 2.327-.679 3.72-1.888 1.111-.965 1.661-1.145 4.744-1.551 1.128-.149 2.042-.547 2.814-1.225 1.742-1.53 4.133-1.791 18.22-1.988 18.019-.253 23.309.226 25.921 2.35.555.451 1.779.849 3.259 1.058 1.934.274 2.63.558 3.784 1.546.778.666 1.977 1.312 2.664 1.436 1.674.302 2.407.714 3.693 2.078.703.745 1.673 1.297 2.764 1.571 1.241.313 1.828.683 2.244 1.415.31.546 1.195 1.29 1.967 1.655.772.364 1.616 1.06 1.876 1.545.259.486.93 1.073 1.489 1.304.599.249 1.302.979 1.71 1.779.381.747 1.056 1.524 1.501 1.727.445.202 1.06.894 1.366 1.538.307.643 1.047 1.422 1.644 1.731.618.32 1.301 1.075 1.583 1.751.273.655.907 1.458 1.408 1.786.5.328 1.194 1.26 1.541 2.07.348.81 1.195 2.096 1.884 2.859.69.764 1.481 2.158 1.763 3.106.281.947.842 2.021 1.247 2.387 1.008.912 1.639 2.221 2.093 4.337.22 1.027.793 2.256 1.347 2.892 1.192 1.366 1.283 1.678 1.743 5.939.277 2.562.658 4.074 1.491 5.923l1.119 2.483.211 12.195c.151 8.681.342 12.547.665 13.415 1.831 4.935.479 26.556-1.733 27.7-.521.269-1.139.954-1.374 1.521-.235.567-1.029 1.571-1.765 2.232-1.359 1.221-2.24 3.355-2.021 4.898.189 1.327 2.122 1.975 5.89 1.976 3.896 0 4.497.359 4.497 2.679 0 5.486.977 6.347 3.829 3.376 2.113-2.2 4.637-4.313 5.152-4.313.308 0 1.032-1.309 1.768-3.198.232-.597.904-1.174 1.863-1.598.824-.366 1.714-.926 1.977-1.245 1.228-1.486 9.551-.497 11.466 1.363 1.126 1.094 1.407 1.194 3.354 1.196 2.871.003 4.54.521 6.068 1.886 1.16 1.036 1.551 1.166 4.092 1.355 3.35.25 4.443.622 5.844 1.992 1.07 1.047 1.587 1.198 5.284 1.545 1.623.153 2.246.382 2.787 1.022.869 1.03 2.37 1.787 4.181 2.109.767.137 1.812.645 2.324 1.13.559.53 1.101.776 1.36.616.27-.167.342-.123.193.118-.312.506.631.978 2.569 1.284.863.137 1.913.467 2.334.734.507.321.841.363.989.124.151-.244.385-.228.719.05.364.301.396.533.119.866-.422.509 1.178 1.543 2.388 1.543.787 0 1.814 1.045 1.814 1.845 0 .746.826 1.148 2.961 1.441 2.656.363 2.931.506 3.234 1.676.209.805.579 1.184 1.437 1.473 1.633.55 2.01 1.245 2.289 4.217.206 2.202.372 2.697 1.056 3.144.948.622 1.723 2.417 2.07 4.795.185 1.271.575 2.052 1.565 3.136.79.865 1.413 1.958 1.552 2.725.193 1.058.414 1.321 1.264 1.508 1.13.248 1.39.532 1.91 2.086.253.759.622 1.091 1.356 1.22 1.042.183 1.366.546 1.945 2.18.241.681.579.959 1.166.959.924 0 1.841.863 2.034 1.916.084.455.611.855 1.517 1.151.764.249 1.86.897 2.435 1.439 1.287 1.213 2.059 1.605 3.766 1.913.799.145 1.886.745 2.731 1.508 2.234 2.019 9.711 2.194 10.202.239.238-.95 1.476-1.612 3.161-1.689.621-.029 1.01-.222.958-.476-.048-.234.087-.427.299-.427s.308-.202.213-.45c-.328-.855.728-1.85 1.471-1.386.523.327.744.308 1.076-.091.496-.599-.366-1.102-1.126-.657-.248.146-.153-.075.212-.492.687-.783 1.107-1.018.73-.408-.119.192.017.349.3.349.298 0 .622.478.767 1.132.216.976.286 1.036.507.436.14-.384.187-.815.104-.959-.083-.143.25-.261.74-.261.895 0 1.098-.451.687-1.524-.168-.437-.36-.368-1.046.371-.835.902-1.007.76-.853-.706.037-.352-.219-.967-.569-1.367-.351-.399-.459-.623-.241-.496.884.514 1.156-.722.637-2.898-.244-1.025 1.124-2.829 1.582-2.088.187.303.326.312.499.032.132-.214-.005-.634-.304-.933-.3-.3-.545-.377-.545-.172 0 .205-.267.373-.593.373-.46 0-.499-.093-.174-.418.549-.548.537-2.793-.017-3.415-.369-.414-.345-.42.159-.04.327.247.749.353.938.236.204-.125.393.469.462 1.451.064.915.152-1.198.195-4.695.072-5.861.03-6.359-.533-6.354-.468.004-.502.075-.147.3.379.24.369.332-.053.493-.328.127-.585-.059-.702-.509-.102-.389-.351-.605-.553-.48-.224.138-.287.016-.161-.312.113-.296.347-.452.518-.346.172.106.312-.042.312-.329 0-.851-.632-.988-1.04-.226-.208.389-.515.707-.683.707-.34 0-.304-.663.067-1.256.16-.255-.042-.331-.594-.226-.598.115-.775.32-.62.723.19.497.151.503-.339.051-.396-.366-.451-.637-.191-.955.272-.332.228-.392-.174-.238-.295.114-.655.015-.8-.22-.176-.285-.118-.336.177-.154.315.195.38.086.23-.386-.465-1.467-.436-2.78.073-3.255.462-.431.502-.398.327.273-.136.52-.043.765.29.765.269 0 .49-.224.49-.498 0-.592-.933-1.593-1.485-1.593-.215 0-.086-.224.286-.499.558-.411.596-.579.22-.958-.377-.379-.416-.353-.224.151.134.353.07.61-.154.61-.212 0-.385-.202-.385-.448 0-.247-.326-.448-.724-.448-.565 0-.69.173-.571.796.084.438.018.796-.147.796-.165 0-.324-.431-.352-.958-.028-.527-.068-1.218-.087-1.536-.02-.318-.178-.71-.353-.871-.188-.174-.203-.081-.036.23.233.432.198.444-.202.072-.412-.383-.407-.499.036-.778.467-.296.245-.489-.439-.381-.144.023-.243-.076-.22-.22.108-.684-.085-.906-.38-.439-.28.443-.396.448-.779.036-.371-.398-.364-.434.039-.204.335.191.408.147.232-.137-.147-.239-.561-.32-.968-.191-.523.166-.639.108-.437-.219.198-.319.106-.38-.322-.216-.403.155-.517.098-.349-.174.172-.278.041-.329-.417-.166-.484.173-.428.051.204-.444.651-.511.771-.783.475-1.081-.297-.297-.464-.289-.664.035-.183.298-.124.345.189.151.304-.188.372-.146.204.126-.313.506-.901.183-.901-.495 0-.276-.244-.502-.543-.502-.299 0-.456.142-.348.316.107.174-.119.234-.502.134-.384-.101-.698-.321-.698-.491 0-.169-.151-.307-.337-.307-.186 0-.24.253-.121.563.18.471.1.501-.488.186-.387-.207-.803-.277-.924-.156-.121.121-.22.037-.22-.187 0-.432-1.318-.547-2.234-.196-.303.116-.448.376-.324.577.147.237.055.259-.263.06-.269-.168-4.096-.322-8.503-.341-4.408-.019-8.571-.157-9.252-.305-1.087-.237-1.291-.17-1.666.548-.235.45-.349.544-.254.209.226-.79-.361-.79-.821 0-.317.544-.356.526-.366-.174-.007-.486-.225-.784-.574-.784-.425 0-.52.234-.385.958.176.953.174.954-.344.185-.446-.663-.591-.704-1.008-.287-.646.646-.614.881.123.908.47.017.431.094-.169.335-.475.191-.703.508-.586.814.106.275.022.606-.185.734a.506.506 0 00-.172.645c.114.226-.119.042-.516-.41-.807-.918-1.994-.789-1.623.177.179.469.127.494-.297.141-.284-.235-.679-.326-.879-.203-.201.124-.364.074-.364-.112 0-.185-.883-.614-1.963-.954-1.653-.519-1.845-.66-1.219-.892.408-.151.743-.353.743-.449 0-.096-.245-.081-.544.034-.363.139-.608-.038-.737-.534-.107-.408-.42-.742-.697-.742-.276 0-.407.155-.289.345.269.436-.959.005-1.26-.443-.13-.192-.517-.162-.959.074-.487.261-.741.274-.741.036 0-.198-.235-.36-.522-.36-.288 0-.523.166-.523.369 0 .203.181.257.402.12.252-.155.308-.095.15.159-.138.225-.398.318-.576.208-.434-.268-.415-1.205.024-1.205a.349.349 0 00.348-.348c0-.192-.235-.349-.522-.349a.534.534 0 01-.523-.543c0-.299.155-.447.345-.33.197.122.256-.018.137-.326-.113-.296-.333-.46-.489-.364-.155.095-.348-.023-.429-.264-.117-.346-.255-.348-.665-.01-.409.337-.619.337-.998 0-.358-.319-.351-.255.025.248.46.613.447.652-.142.431-.496-.186-.6-.115-.44.301.12.314.063.455-.135.332-.19-.117-.345-.412-.345-.657 0-.244-.235-.444-.522-.444-.288 0-.523.149-.523.331 0 .182-.314.249-.697.149-.399-.104-.699-.01-.702.221-.004.27-.099.255-.289-.045-.166-.262-.542-.348-.907-.208-.539.207-.57.142-.233-.488.496-.927.531-1.88.041-1.121-.344.532-.545.075-.371-.843.034-.176-.213-.098-.548.174-.436.354-.531.365-.336.041.169-.281.01-.683-.414-1.051-.378-.328-.767-.907-.863-1.288-.133-.527-.185-.463-.216.267-.022.527-.236.981-.475 1.01-2.404.291-3.556-.105-3.289-1.128.096-.367.043-.586-.117-.487-.161.099-.384.032-.496-.15-.112-.181-.045-.428.15-.549.554-.342.415-1.569-.204-1.807-.306-.118-.686-.006-.843.248-.284.459-.579.577-1.909.762-.383.053-.809.254-.945.445-.316.442-1.32-.521-1.49-1.429l-.151-.791c-.015-.071-.262.066-.55.304-.75.623-.707-.264.054-1.105.556-.614.349-.832-.651-.682-.137.02-.159-.197-.05-.482.275-.715-1.044-.687-1.644.036-.411.496-.5.498-.85.02-.479-.656-3.049-.633-2.799.024.088.234.011.517-.172.631-.184.113-.336 0-.339-.251-.004-.305-.09-.331-.261-.078-.332.489-2.501-.058-2.573-.649a73.336 73.336 0 00-.122-.948c-.039-.288-.095-.85-.123-1.249-.028-.399-.248-.74-.487-.758-.24-.019-.828-.146-1.307-.284-.51-.147-.75-.121-.58.062.159.172.394.326.522.343.854.11 1.355.615 1.2 1.208-.097.368-.325.577-.508.464-.183-.113-.244-.436-.136-.718.135-.352.006-.473-.412-.387-.335.068-.781-.101-.991-.377-.389-.509-1.345-.238-1.019.29.098.158-.032.368-.288.466-.333.128-.421-.06-.306-.66.13-.679.015-.839-.598-.839-.417 0-.662-.155-.545-.345.122-.197-.017-.256-.326-.137-.296.113-.452.347-.346.518.106.172-.051.312-.35.312s-.543.226-.543.502-.181.614-.402.751c-.241.148-.309.096-.169-.13.129-.208.074-.476-.12-.597-.195-.12-.355.026-.355.325 0 .885-1.663.143-1.768-.789-.015-.13-.102-.55-.194-.933-.366-1.521-.401-2.259-.098-2.072.175.108.318.05.318-.129 0-.402-1.753-.772-3.44-.726-1.143.032-1.181.061-.392.314.617.198.687.289.24.314-.346.019-.548.167-.448.328.1.162-.233.272-.74.245-.863-.046-1.644-.887-.824-.887.208 0 .378-.314.378-.697 0-.697 0-.697-.697 0-.383.383-.658.868-.61 1.078.048.209-.42.426-1.04.482-.621.055-1.049-.027-.953-.183.096-.156.016-.382-.179-.502-.195-.121-.354-.058-.354.139s-.231.269-.514.161c-.452-.174-.452-.258 0-.711.283-.283.512-.699.509-.924-.003-.241-.145-.195-.343.112-.246.379-.34.398-.343.066-.003-.251-.166-.357-.363-.235-.196.121-.32.091-.274-.067.045-.158-.102-.619-.328-1.025-.225-.406-.298-.862-.161-1.014.137-.151-.038-.172-.389-.046-.351.127-1.145.23-1.764.23-1.695 0-5.237 2.762-6.344 4.948-.527 1.039-1.338 1.992-2.057 2.416-.653.385-1.286 1.013-1.407 1.395-.354 1.116-5.042 6.224-5.712 6.224-.336 0-.895.313-1.242.696-.955 1.056-1.13.88-1.396-1.417-.405-3.485-1.028-3.945-5.628-4.157l-3.777-.175.053-1.146c.06-1.306 1.829-4.429 3.549-6.264 2.566-2.738 2.657-4.212 2.266-36.693l-.326-27.03-.921-1.89c-.506-1.039-1.343-3.614-1.86-5.722-.517-2.108-1.522-5.009-2.233-6.446-.711-1.438-1.557-3.414-1.88-4.393-.323-.978-.989-2.154-1.48-2.613-.491-.459-1.346-1.775-1.9-2.925-.554-1.149-1.552-2.796-2.217-3.658-3.207-4.158-3.97-5.068-5.507-6.572-.911-.89-1.656-1.77-1.656-1.955 0-.613-7.244-7.849-7.858-7.849-.202 0-.908-.563-1.568-1.251-.66-.687-1.828-1.572-2.594-1.966-.767-.394-1.865-1.071-2.439-1.504-.575-.432-2.104-1.284-3.398-1.891-1.293-.607-2.352-1.226-2.352-1.375 0-.364-2.153-1.257-4.703-1.949-1.15-.312-2.708-.969-3.462-1.461-1.029-.671-2.116-.975-4.355-1.219-1.642-.179-4.082-.657-5.424-1.062-3.206-.97-22.78-1.288-25.784-.42m109.335 119.76c.088.239.336.396.552.348.216-.048.392.253.392.668 0 .415.097.658.216.539.397-.398-.222-1.991-.774-1.991-.3 0-.474.196-.386.436m1.975.453c-.373.449-.337.64.21 1.132.362.326.546.45.409.276-.138-.174-.056-.566.182-.871.383-.491.363-.5-.177-.077-.369.29-.61.331-.61.105 0-.206.275-.534.61-.729.335-.196.433-.36.217-.366-.216-.006-.595.232-.841.53m11.034 3.466c.226.606.187.638-.296.245-.323-.262-.642-.316-.759-.127-.11.179.012.503.272.718.676.561 1.573-.491.947-1.112-.332-.33-.367-.27-.164.276m-221.062 2.465c-.253.287-.403.694-.333.905.071.211.399-.029.73-.535.643-.981.369-1.237-.397-.37m228.757.497c-.101.383-.154.697-.118.697.035 0 .332-.314.66-.697.457-.534.485-.697.118-.697-.263 0-.56.314-.66.697m1.317.703c-.121.194-.404.251-.631.125-.226-.126-.138.061.196.415.49.519.692.558 1.045.202.353-.355.303-.39-.258-.181-.62.231-.644.195-.219-.328.263-.323.39-.588.282-.588-.108 0-.295.16-.415.355m-3.041 1.758c.11.407.066.403-.234-.022-.251-.354-.371-.382-.375-.087-.003.24-.157.436-.343.436-.186 0-.245-.242-.131-.538.242-.632.889-.506 1.083.211m-234.902.192c-.173.45-.317.477-.724.139-.405-.336-.623-.308-1.066.135-.307.307-.421.557-.254.557.167 0 .474-.17.682-.378.273-.273.445-.273.613 0 .129.208.47.378.757.378.288 0 .432-.147.321-.327-.111-.179.075-.488.415-.686.542-.316.548-.36.044-.37-.315-.006-.669.243-.788.552m243.779.831c.209 0 .299.082.198.183-.412.412-1.275-.261-1.054-.821.209-.531.24-.529.352.029.068.335.294.609.504.609m-245.99.58c-.239.096-.435.328-.435.515s.183.227.407.088c.272-.168.336-.064.192.31-.152.398-.065.505.298.365.362-.138.409-.323.16-.624-.195-.235-.251-.53-.125-.656.257-.257.142-.256-.497.002m252.765 2.121c.004.335-.205.919-.464 1.297-.55.802-.619.27-.132-1.013.398-1.045.587-1.135.596-.284m5.328 2.69c.24.289.561.447.715.353.153-.095.359-.011.457.186.098.198.142.175.099-.051-.044-.226-.445-.547-.893-.713-.701-.259-.754-.228-.378.225m3.466 1.142l-.844.959.893-.784c1.078-.946 1.714-1.043.894-.137-.523.577-.528.694-.054 1.088.582.483 1.587-.043 1.566-.82-.006-.216-.17-.118-.366.217-.195.336-.523.61-.729.61-.259 0-.254-.144.015-.468.213-.257.285-.57.159-.697-.127-.126-.008-.231.264-.234.406-.005.401-.065-.029-.343-.747-.483-.831-.454-1.769.609m-276.805.09c-.89.984-.511 1.075.425.102.425-.441.645-.801.49-.801-.155 0-.567.314-.915.699m-8.259 5.639c.637.637 1.617.709 1.095.08-.225-.272-.658-.495-.96-.495-.425 0-.455.094-.135.415m-40.517.278c-.128.207.038.25.415.109.539-.202.564-.157.176.321-.31.381-.335.63-.082.787.204.126.281.375.171.553-.11.179-.028.325.184.325.211 0 .338-.275.282-.61-.065-.387.085-.569.41-.497.383.084.347-.071-.141-.61-.722-.798-1.094-.897-1.415-.378m38.676 0c-.128.207.038.25.415.109.526-.197.558-.15.201.291-.328.404-.332.622-.018.936.304.304.307.41.01.41-.221 0-.561-.274-.756-.61-.324-.554-.357-.557-.366-.025-.019 1.062 1.111 1.903 1.423 1.059.143-.386.438-.811.655-.945.278-.172.217-.442-.204-.907-.67-.741-1.044-.828-1.36-.318m-1.471 3.035c-.143.374-.279.437-.367.172-.077-.231-.308-.316-.513-.19-.22.136-.27.066-.123-.172.403-.652 1.264-.489 1.003.19m302.547-.19c.147.238.097.308-.123.172-.205-.126-.436-.041-.513.19-.088.265-.224.202-.367-.172-.261-.679.6-.842 1.003-.19m-1.347.969c-.105.4.03.754.329.869.279.107.413.346.298.532-.118.191-.511.037-.901-.353-.567-.567-.611-.781-.248-1.193.603-.685.729-.65.522.145m-346.682 5.48c.239.097.435.417.435.712 0 .414-.108.446-.476.141-.363-.301-.581-.269-.914.131-.241.29-.379.539-.308.554 1.41.29 1.694.137 2.156-1.159.166-.467.036-.603-.556-.582-.425.015-.577.106-.337.203m393.036.623c-.103.539.021.924.336 1.045.781.3 1.019.215.443-.157-.447-.288-.434-.338.087-.343.335-.003.61-.157.61-.343 0-.185-.263-.236-.583-.113-.442.169-.529.082-.36-.36.123-.32.091-.583-.073-.583-.163 0-.37.384-.46.854M1.747 191.028c-.003.41.252.601.779.582.524-.018.611-.093.261-.226-.287-.11-.637-.372-.778-.583-.158-.236-.258-.149-.262.227m208.183.908c-.922.505-2.835.576-16.27.601-16.912.032-15.932-.115-16.814 2.525-.299.895-.843 2.082-1.209 2.638l-.666 1.01 1.397 1.167c.769.643 1.542 1.168 1.717 1.168.175 0 .827.487 1.448 1.081s1.599 1.321 2.174 1.616c.575.295 1.553.978 2.173 1.518 3.143 2.737 22.777 2.821 25.703.11a10.774 10.774 0 012.021-1.41c.613-.313 1.777-1.175 2.587-1.916.81-.741 1.594-1.354 1.742-1.361.148-.008.788-.459 1.423-1.002l1.154-.987-.723-1.176c-.397-.647-.891-1.794-1.098-2.549-.865-3.165-3.973-4.56-6.759-3.033m5.002 2.167c.403.432.771 1.501.915 2.658l.242 1.935-1.86 1.9c-1.023 1.045-2.565 2.262-3.428 2.705-.862.443-1.855 1.123-2.206 1.512-1.142 1.263-3.712 1.62-11.731 1.627-8.579.007-10.409-.302-12.589-2.122-.778-.65-1.614-1.182-1.858-1.182-.243 0-1.491-1.013-2.772-2.251-2.521-2.435-2.774-3.995-1.118-6.887.024-.043 7.257-.163 16.072-.268 8.816-.104 16.845-.226 17.844-.27 1.454-.064 1.95.064 2.489.643M.348 213.066c0 .288.226.523.503.523.737 0 .976-.59.338-.835-.777-.298-.841-.274-.841.312m396.761 5.969c-.121.121-.075.493.104.826.178.333.224.704.103.825-.121.121-.104.22.038.22.778 0 1.206-.976.508-1.159-.396-.103-.616-.355-.49-.56.252-.407.087-.502-.263-.152m-2.24.418c-.236.146-.288.444-.126.707.219.354.334.321.513-.146.278-.725.159-.898-.387-.561"/><path fill="#fcdc4b" d="M182.753 45.886c-4.368.292-6.533.808-7.705 1.837-.779.684-1.69 1.082-2.821 1.231-3.083.406-3.633.586-4.744 1.551-1.393 1.209-2.184 1.611-3.72 1.888-.774.14-1.668.698-2.449 1.527-.824.876-1.867 1.507-3.167 1.916-1.412.445-2.048.852-2.343 1.499-.223.489-.94 1.113-1.595 1.386-.654.274-1.528.974-1.943 1.556-.414.581-1.217 1.297-1.784 1.591-.567.293-1.273 1.04-1.568 1.659-.295.619-.988 1.385-1.54 1.701-.551.317-1.228 1.115-1.503 1.773-.329.788-.857 1.322-1.545 1.562-.748.26-1.163.719-1.457 1.609-.226.685-.87 1.572-1.432 1.972-.562.401-1.427 1.585-1.923 2.632-.495 1.047-1.262 2.141-1.705 2.431-.802.525-1.329 1.553-1.723 3.362-.114.523-.653 1.464-1.197 2.09-1.282 1.476-1.603 2.139-2.134 4.4-.249 1.061-.859 2.346-1.413 2.976-.852.971-1.041 1.624-1.51 5.224-.328 2.521-.824 4.709-1.278 5.649-1.498 3.093-1.699 4.964-1.719 15.991-.014 7.524-.161 11.234-.523 13.24-.583 3.225-.753 25.492-.208 27.213.175.556.413 1.439.527 1.962.115.524.678 1.487 1.251 2.14 3.391 3.862 2.549 6.49-2.081 6.49-2.813 0-3.153.561-3.153 5.198 0 2.093-.101 4.092-.224 4.443-.214.611-.196.612.431.021.546-.515.675-1.263.786-4.53.15-4.447.133-4.422 2.923-4.43 2.231-.006 6.061-1.341 7.082-2.468.511-.565 1.087-.673 3.603-.673 3.124 0 6.133-.804 6.655-1.778.144-.268.338-3.44.432-7.049.2-7.659.24-7.763 3.702-9.509 1.187-.598 2.47-1.37 2.851-1.715 1.038-.94 4.568-1.54 8.867-1.51 4.665.034 4.999.122 7.13 1.875 2.568 2.113 2.547 2.009 2.472 11.909l-.066 8.774.807.424c1.235.65 4.643 4.294 5.142 5.498.244.59.725 1.161 1.069 1.271.691.219 1.432 1.611 2.131 4.005.251.863.811 2.094 1.243 2.736 1.628 2.42 1.633 8.269.007 9.046-1.172.56-3.227 3.603-3.573 5.292-.138.67-.544 1.593-.902 2.05-.674.86-.864 1.782-.367 1.782.37 0 1.609-2.264 2.13-3.892.715-2.236.019-2.146 16.681-2.177 13.781-.026 15.337-.086 16.411-.638 2.822-1.451 5.754-.091 6.618 3.07.443 1.62 1.62 3.637 2.121 3.637.587 0 .398-.897-.327-1.553-.374-.339-.868-1.452-1.096-2.473-.589-2.63-1.679-4.394-3.22-5.207l-1.32-.697.11-3.719c.094-3.209.21-3.829.847-4.529.406-.446 1.076-1.946 1.49-3.334.557-1.87 1.01-2.713 1.753-3.262.551-.407 1.268-1.332 1.594-2.054.326-.723.969-1.516 1.429-1.762.46-.246 1.142-.965 1.515-1.597.373-.633 1.079-1.25 1.57-1.373 1.226-.308 1.295-.799 1.17-8.41-.094-5.745-.192-6.74-.719-7.321-1.19-1.314 1.627-5.871 4.191-6.779 1.963-.695 13.976-.644 14.944.063 6.627 4.841 6.383 4.355 6.386 12.751.002 7.289-.228 6.939 5.16 7.822 1.12.184 2.081.575 2.439.992 1.314 1.534 4.627 2.477 8.699 2.477 4.424 0 4.605.109 4.622 2.77.007 1.064.236 2.326.508 2.805.448.788.476.587.29-2.091-.282-4.053-.423-4.181-4.61-4.181-3.768-.001-5.701-.649-5.89-1.976-.219-1.543.662-3.677 2.021-4.898.736-.661 1.53-1.665 1.765-2.232.235-.567.853-1.252 1.374-1.521 2.212-1.144 3.564-22.765 1.733-27.7-.323-.868-.514-4.734-.665-13.415l-.211-12.195-1.119-2.483c-.833-1.849-1.214-3.361-1.491-5.923-.46-4.261-.551-4.573-1.743-5.939-.554-.636-1.127-1.865-1.347-2.892-.454-2.116-1.085-3.425-2.093-4.337-.405-.366-.966-1.44-1.247-2.387-.282-.948-1.073-2.342-1.763-3.106-.689-.763-1.536-2.049-1.884-2.859-.347-.81-1.041-1.742-1.541-2.07-.501-.328-1.135-1.131-1.408-1.786-.282-.676-.965-1.431-1.583-1.751-.597-.309-1.337-1.088-1.644-1.731-.306-.644-.921-1.336-1.366-1.538-.445-.203-1.12-.98-1.501-1.727-.408-.8-1.111-1.53-1.71-1.779-.559-.231-1.23-.818-1.489-1.304-.26-.485-1.104-1.181-1.876-1.545-.772-.365-1.657-1.109-1.967-1.655-.416-.732-1.003-1.102-2.244-1.415-1.091-.274-2.061-.826-2.764-1.571-1.286-1.364-2.019-1.776-3.693-2.078-.687-.124-1.886-.77-2.664-1.436-1.154-.988-1.85-1.272-3.784-1.546-1.48-.209-2.704-.607-3.259-1.058-1.638-1.332-3.044-1.722-7.518-2.085-4.001-.325-24.561-.41-28.911-.12m.193 66.668c1.577.844 1.79 2.286.969 6.569-.482 2.514-4.766 6.803-9.195 9.206-2.87 1.557-11.336 1.176-13.346-.6-.698-.617-1.818-1.454-2.489-1.861-5.937-3.597-8.889-12.289-4.521-13.317 1.832-.431 27.776-.428 28.582.003m57.999.218c3.449 3.449-.426 10.167-9.013 15.625-1.336.849-10.56 1.032-11.986.238-7.718-4.302-12.552-12.313-9.432-15.633l.757-.807h14.549c13.073 0 14.607.059 15.125.577m-22.519 24.641c2.205 2.347 2.336 7.751.215 8.857-.383.2-1.01.952-1.394 1.672-.453.85-1.083 1.44-1.801 1.683-.608.206-1.426.785-1.818 1.286-.412.527-1.636 1.251-2.902 1.717-1.204.443-2.692 1.237-3.307 1.765-2.616 2.248-21.356 2.181-21.356-.075 0-.181-1.137-.851-2.526-1.489-1.549-.711-2.822-1.567-3.289-2.213-.419-.579-1.203-1.162-1.742-1.297-1.16-.289-2.199-1.151-2.199-1.824 0-.264-.542-.8-1.204-1.191-1.766-1.041-2.288-4.558-1.037-6.977 1.262-2.44 4.899-2.461 7.408-.041 2.938 2.834 5.883 4.511 9.109 5.186 5.791 1.212 15.609.121 17.958-1.995.386-.348 1.285-.875 1.997-1.173.712-.298 1.57-.971 1.906-1.497.764-1.197 1.619-1.845 3.403-2.576 1.84-.753 1.69-.764 2.579.182m74.347 18.914c-.34.138-.343.337-.013.931.231.416.382.885.337 1.043-.046.158.078.188.274.067.197-.122.36-.016.363.235.003.332.097.313.343-.066.198-.307.34-.353.343-.112.003.225-.226.641-.509.924-.452.453-.452.537 0 .711.283.108.514.036.514-.161s.159-.26.354-.139c.195.12.275.346.179.502-.096.156.332.241.953.189.779-.065 1.099-.256 1.034-.616-.051-.287.155-.617.458-.734.303-.116.453-.369.334-.562-.12-.193-.051-.351.152-.351.627 0 .406-1.001-.305-1.381-.845-.453-1.417-.462-1.417-.024 0 .186.275.253.61.148.581-.18.581-.171 0 .203-.335.215-.61.565-.61.777 0 .212.287.126.637-.191.707-.64 1.105-.737 1.105-.269 0 .169-.329.394-.732.499-.492.129-.641.342-.455.65.205.341.12.333-.33-.032-.332-.27-.526-.697-.43-.948.404-1.052-1.688-1.899-3.189-1.293m2.558 1.006c.123.488.126.985.007 1.104-.119.119-.216-.133-.216-.56 0-.426-.139-.689-.309-.584-.17.105-.503-.043-.74-.328-.358-.432-.307-.519.303-.519.495 0 .805.288.955.887m-199.323 2.225c-.11.178-.017.438.207.576.279.173.315.098.113-.237-.234-.389-.191-.407.208-.089.385.307.608.287.952-.087.375-.408.307-.488-.415-.488-.476 0-.955.146-1.065.325m207.041-.11c.239.105.435.345.435.532 0 .187-.143.251-.318.143-.303-.187-.268.551.098 2.072.092.383.179.803.194.933.105.932 1.768 1.674 1.768.789 0-.299.16-.445.355-.325.194.121.249.389.12.597-.14.226-.072.278.169.13.221-.137.402-.475.402-.751s.244-.502.543-.502c.326 0 .442-.163.291-.407-.172-.278-.058-.334.357-.175.334.129.849.234 1.143.234.377 0 .487.247.374.839-.115.6-.027.788.306.66.256-.098.386-.308.288-.466-.326-.528.63-.799 1.019-.29.21.276.656.445.991.377.418-.086.547.035.412.387-.108.282-.047.605.136.718.183.113.411-.096.508-.464.155-.593-.346-1.098-1.2-1.208-.754-.098-.593-.542.173-.478.512.042.931.209.931.37s.156.196.348.077c.192-.118.372.147.4.59.028.442.084 1.039.123 1.327.039.287.094.714.122.948.072.591 2.241 1.138 2.573.649.171-.253.257-.227.261.078.003.251.155.364.339.251.183-.114.26-.397.172-.631-.111-.291.386-.455 1.583-.522 1.087-.061 1.744.045 1.744.282 0 .209-.181.268-.402.131-.26-.16-.307-.095-.135.184.178.288.383.317.616.084.627-.627-.12-1.156-1.493-1.057-.739.053-1.444-.003-1.567-.126s-.418-.148-.656-.057c-.238.091-.654-.106-.924-.439-.365-.45-.373-.535-.032-.33.308.186.521.037.65-.455.105-.403.33-.732.499-.732.468 0 .371.398-.268 1.105-.318.35-.404.637-.192.637.212 0 .562-.275.777-.61.374-.581.383-.581.203 0-.105.335-.038.61.148.61.492 0 .412-.81-.158-1.589-.375-.513-.914-.676-2.235-.676-.958 0-1.859-.118-2.003-.261-.144-.144-1.402-.262-2.796-.262-2.258 0-3.608-.41-2.531-.769.494-.165.067-1.67-.474-1.67-.211 0-.281.102-.157.227.125.125-.045.447-.377.716-.542.439-.524.45.18.11.85-.413 1.069.019.322.639-.595.493-1.3-.144-1.051-.95.132-.427.039-.4-.375.109-.304.372-.549.529-.546.348.008-.507.464-1.074 1.04-1.293.361-.138.292-.208-.224-.227-.411-.015-.837.208-.948.496-.22.573-1.267.726-1.267.185 0-.186.256-.239.57-.119.392.15.52.065.409-.272-.089-.27-.62-.526-1.18-.567-.56-.042-.823.01-.583.116m-5.406.553c.076.23.554.441 1.061.468.507.027.847-.071.756-.218-.091-.148.111-.34.449-.428.337-.088-.066-.178-.896-.201-1.035-.027-1.466.092-1.37.379m-204.875.365c-.191.239-.456.788-.589 1.219-.213.697-.468.784-2.28.784-1.798 0-2.164.123-3.075 1.035-.96.959-1.047.985-1.214.348-.345-1.321-3.054-.593-3.004.807.018.505.092.591.214.249.45-1.259 2.546-1.941 2.546-.828 0 .449-.102.481-.495.154-.407-.337-.462-.283-.309.302.102.392.299.643.437.558.138-.085.251.056.251.313 0 .497-.473.529-1.191.081-.251-.157-.435-.107-.435.117 0 .214-.157.293-.349.174-.191-.118-.348-.03-.348.197 0 .313-.12.312-.504-.006-.624-.518-2.109-.346-2.109.245 0 .24.139.422.309.406.17-.017.457.179.636.435.26.37.295.358.17-.057-.086-.288-.334-.483-.549-.436-.216.048-.392-.069-.392-.261 0-.915 2.238-.167 2.259.755.003.128.148.363.323.523.182.166.218.117.084-.116-.164-.287.194-.379 1.221-.314.932.06 1.683-.104 2.093-.455.684-.586.875-1.787.284-1.787-.197 0-.104-.386.205-.858.52-.792.623-.819 1.343-.347.758.496 1.247.385 1.247-.284 0-.18-.23-.239-.511-.131-.282.108-.605.046-.718-.137-.114-.185.278-.333.881-.333.705 0 1.002.135.848.386-.161.259.003.308.502.15.459-.145.74-.084.74.162 0 .654.837-.411 1.228-1.562.193-.571.741-1.235 1.217-1.476.807-.408.816-.438.124-.443-.408-.002-.898.191-1.09.431m2.047.174c.105.666-.081.836-.518.474-.361-.3-.576-.275-.888.101-.281.338-.296.567-.046.721.201.124.365.393.365.597 0 .261-.132.26-.448-.002-.345-.286-.465-.155-.519.567-.055.722.007.818.268.417.283-.434.342-.405.351.174.009.578.068.608.348.174.3-.465.339-.465.349 0 .007.353.093.393.266.124.141-.219.672-.352 1.18-.295 1.054.117 1.614-1.259.79-1.943-.249-.207-.367-.6-.262-.873.128-.334-.051-.497-.543-.497-.404 0-.716.117-.693.261m190.506 3.105c-.263.319-1.153.879-1.977 1.245-.963.426-1.628.999-1.859 1.598-.198.513-.58 1.376-.851 1.917-.447.896-.437.973.116.866.334-.064.93-.738 1.325-1.498 1.12-2.16 2.893-2.371 6.391-.764 1.71.786 3.452 1.299 4.914 1.447 2.998.304 5.204.856 6.272 1.571 1.316.881 2.692 1.345 5.625 1.898 1.547.291 3.453.947 4.547 1.564 1.157.654 3.02 1.278 4.828 1.62 2.359.445 3.138.754 3.924 1.553.689.703 1.566 1.111 2.961 1.38 1.09.211 2.308.451 2.707.535.398.084 1.412.697 2.253 1.362.883.698 2.123 1.308 2.934 1.443 1.694.28 2.347.602 3.446 1.7.459.46 1.521 1.02 2.359 1.244 2.088.558 3.788 1.315 3.788 1.685 0 .39 2.351 1.957 3.467 2.311.465.147 1.343.797 1.953 1.443.61.647 1.416 1.176 1.791 1.176 1.694 0 4.144 3.634 4.434 6.579.335 3.405.688 4.427 2.048 5.932.733.811 1.266 1.828 1.402 2.674.327 2.035 8.629 11.417 12.406 14.02.657.452 1.483 1.19 1.837 1.64.354.45 1.54 1.153 2.636 1.563 1.12.42 2.374 1.196 2.866 1.775.757.891 1.279 1.094 3.886 1.509 1.655.264 3.371.672 3.811.908 1.955 1.047 7.937-.024 9.902-1.772 1.339-1.19 2.154-1.474 2.4-.834.297.776.874.592 1.112-.355.176-.702.381-.825 1.139-.687 1.217.221 1.755-.182 1.919-1.436.074-.566.061-.793-.03-.506-.526 1.664-1.924 2.184-2.577.958-.363-.679-.349-.727.1-.356.409.337.615.337.979 0 .369-.342.406-.33.182.062-.187.328-.146.407.124.24.295-.182.302-.438.026-.955-.208-.388-.287-.796-.175-.908.111-.111.213.02.227.291.014.284.143.197.304-.203.154-.383.143-.962-.025-1.285-.188-.362-.167-.674.052-.81.197-.122.315-.014.263.24-.14.671.807.566 1.252-.139.277-.44.266-.712-.041-1.019-.327-.328-.388-.255-.275.331.227 1.177-.425 1.246-.683.072-.13-.589-.456-1.048-.746-1.048-.316 0-.417-.169-.261-.436.14-.239-.086-.137-.502.228-.885.776-.95.957-.251.688.788-.302 1.35.182.875.755-.311.374-.535.388-1.053.064-.743-.464-1.799.531-1.471 1.386.095.248-.001.45-.213.45s-.347.193-.299.427c.052.254-.337.447-.958.476-1.685.077-2.923.739-3.161 1.689-.491 1.955-7.968 1.78-10.202-.239-.845-.763-1.932-1.363-2.731-1.508-1.707-.308-2.479-.7-3.766-1.913-.575-.542-1.671-1.19-2.435-1.439-.906-.296-1.433-.696-1.517-1.151-.193-1.053-1.11-1.916-2.034-1.916-.587 0-.925-.278-1.166-.959-.579-1.634-.903-1.997-1.945-2.18-.734-.129-1.103-.461-1.356-1.22-.52-1.554-.78-1.838-1.91-2.086-.85-.187-1.071-.45-1.264-1.508-.139-.767-.762-1.86-1.552-2.725-.99-1.084-1.38-1.865-1.565-3.136-.347-2.378-1.122-4.173-2.07-4.795-.684-.447-.85-.942-1.056-3.144-.279-2.972-.656-3.667-2.289-4.217-.858-.289-1.228-.668-1.437-1.473-.303-1.17-.578-1.313-3.234-1.676-2.178-.299-2.961-.696-2.961-1.502 0-.773-1.062-1.784-1.874-1.784-1.161 0-2.74-1.047-2.328-1.543.277-.333.245-.565-.119-.866-.334-.278-.568-.294-.719-.05-.148.239-.482.197-.989-.124-.421-.267-1.471-.597-2.334-.734-1.938-.306-2.881-.778-2.569-1.284.149-.241.077-.285-.193-.118-.259.16-.801-.086-1.36-.616-.512-.485-1.557-.993-2.324-1.13-1.811-.322-3.312-1.079-4.181-2.109-.541-.64-1.164-.869-2.787-1.022-3.697-.347-4.214-.498-5.284-1.545-1.401-1.37-2.494-1.742-5.844-1.992-2.541-.189-2.932-.319-4.092-1.355-1.528-1.365-3.197-1.883-6.068-1.886-1.947-.002-2.228-.102-3.354-1.196-1.915-1.86-10.238-2.849-11.466-1.363m30.707-.172c0 .223-.102.304-.227.179-.125-.124-.405.017-.622.314-.342.467-.396.443-.396-.18 0-.459.226-.72.623-.72.342 0 .622.183.622.407m-211.915 2.216c-.087.088-1.794.326-3.791.529-3.595.365-5.013.919-6.88 2.684-.253.24-1.037.437-1.742.438-3.463.005-6.846 1.164-7.821 2.678-.246.382-1.126.565-4.459.925-1.713.185-2.646.752-2.9 1.763-.246.981-.741 1.183-3.175 1.296-2.376.111-3.268.568-3.598 1.844-.271 1.051-.336 1.08-3.043 1.366-1.522.161-3.015.514-3.318.785-.303.271-.63.413-.728.315-.097-.097-.476.177-.842.609l-.666.786.784-.663c.481-.407.784-.501.784-.242 0 .478-2.492 1.668-3.882 1.853-1.018.136-2.122.904-1.875 1.305.088.142-.055.552-.318.911-.522.714-4.727 1.683-4.727 1.09 0-.183-.242-.131-.538.115-.296.246-.458.657-.359.914.098.256.01.466-.196.466-.206 0-.286.231-.178.513.141.367-.206.634-1.217.937-1.829.548-2.271 1.305-2.568 4.403-.204 2.121-.377 2.63-1.049 3.069-.942.618-1.718 2.418-2.064 4.791-.185 1.271-.575 2.052-1.565 3.136-.79.865-1.413 1.958-1.552 2.725-.193 1.058-.414 1.321-1.264 1.508-1.13.248-1.39.532-1.91 2.086-.253.759-.622 1.091-1.356 1.22-1.042.183-1.366.546-1.945 2.18-.241.681-.579.959-1.166.959-.924 0-1.841.863-2.034 1.916-.084.455-.611.855-1.517 1.151-.764.249-1.86.897-2.435 1.439-1.287 1.213-2.059 1.605-3.766 1.913-.805.146-1.888.747-2.752 1.527-2.515 2.273-7.278 1.809-10.032-.976-.233-.235-.973-.428-2.399-.624-1.483-.204-2.479-1.038-2.479-2.077 0-.535-.29-.913-.871-1.134-.479-.182-.871-.508-.871-.725 0-.217-.244-.301-.541-.187-.329.126-.452.063-.313-.16.133-.216-.025-.322-.382-.257-.334.06-.677-.086-.761-.326-.083-.239.048-.435.292-.435.283 0 .231-.158-.144-.436-.596-.441-.257-3.048.396-3.048.359 0 .277-3.202-.097-3.805-.239-.386-.16-.439.36-.241.535.204.581.167.232-.185-.285-.286-.436-1.541-.436-3.621 0-1.75-.109-3.291-.242-3.425-.486-.485-.409-1.324.103-1.128.382.147.429.048.194-.408-.17-.331-.264-.802-.208-1.046.055-.245.03-.312-.056-.149s-.612.229-1.169.147l-1.013-.149-.035 8.05c-.03 6.899.039 8.05.482 8.05.391 0 .542.532.621 2.178.086 1.81.202 2.161.687 2.081.321-.053.682.063.802.258.133.215-.016.263-.383.122-.453-.174-.548-.093-.386.33.119.309.077.61-.092.671-1.436.512.93 4.072 2.397 3.606.496-.157.71.007.877.674.246.979.725 1.141 1.149.387.308-.545 2.544.134 2.544.773 0 1.223 8.024 2.739 9.712 1.836.334-.179 2.009-.567 3.723-.861 2.685-.462 3.236-.679 3.99-1.565.491-.579 1.746-1.356 2.866-1.775 1.096-.41 2.282-1.113 2.636-1.563.354-.45 1.18-1.188 1.837-1.64 3.777-2.603 12.079-11.985 12.406-14.02.136-.846.669-1.863 1.402-2.674 1.359-1.504 1.713-2.527 2.047-5.925.297-3.006 2.391-5.971 4.647-6.578.706-.19 1.7-.782 2.211-1.315.511-.533 1.739-1.28 2.729-1.66 1.089-.418 2.14-1.136 2.66-1.815.591-.771 1.26-1.19 2.133-1.336 2.415-.404 3.528-.904 4.243-1.908.486-.683 1.133-1.077 2.009-1.224 2.391-.401 3.679-.945 4.586-1.939.722-.79 1.458-1.094 3.678-1.519 2.025-.387 3.248-.856 4.522-1.732 1.292-.888 2.382-1.301 4.186-1.586 1.341-.212 2.988-.681 3.658-1.043 2.659-1.434 3.683-1.817 5.72-2.138 1.377-.217 2.822-.763 4.122-1.559 2.697-1.652 5.992-2.003 8.204-.874 1.752.894 1.861.487.368-1.371-.778-.969-1.465-1.434-2.352-1.594-.69-.124-1.507-.356-1.817-.516-.31-.16-.636-.218-.724-.131m207.962.324c-.114.296-.055.538.131.538s.34-.196.343-.436c.004-.295.124-.267.375.087.3.425.344.429.234.022-.194-.717-.841-.843-1.083-.211m-235.889.478c-.766.847-.753 1.596.023 1.298.329-.127.488-.119.351.018-.136.136-.088.439.107.674.249.301.202.486-.16.624-.347.134-.45.033-.318-.311.139-.363.029-.446-.381-.288-.898.345-.409 1.018.654.901.53-.059.864.04.751.222-.111.18.071.306.404.279.335-.026.563.159.51.414-.052.254.068.361.267.237.2-.123.283-.353.185-.512-.295-.477.916-.751 1.43-.324.589.489.64-.085.059-.665-.23-.231-.381-.988-.334-1.682.074-1.108 0-1.24-.609-1.081-.382.1-.752.01-.821-.199-.07-.21-.233-.107-.362.229-.13.34-.092.522.087.412.176-.109.419-.038.539.156.293.475-.628.454-1.107-.024-.273-.273-.444-.273-.613 0-.129.208-.393.378-.587.378-.194 0-.107-.245.192-.544.3-.3.703-.448.896-.328.193.119.351.051.351-.152 0-.586-.883-.429-1.514.268m246.097-.095c-.247.298-.306.515-.129.481 1.039-.197 1.29.032.722.659-.761.841-.804 1.728-.054 1.105.288-.238.535-.375.55-.304l.151.791c.17.908 1.174 1.871 1.49 1.429.136-.191.562-.392.945-.445 1.592-.221 2.612-.774 1.429-.774-.446 0-.547-.183-.384-.697.307-.966-.11-2.09-.774-2.09-.479 0-.468.093.079.698.691.763.214 2.719-.548 2.248-.245-.151-.187-.431.171-.826.802-.886-.019-1.648-.909-.842-.711.644-.868.175-.196-.59.239-.273.056-.186-.409.192-.464.378-.737.504-.606.28.13-.224.002-.643-.286-.93-.395-.396-.417-.565-.09-.698.272-.109.222-.185-.134-.202-.312-.015-.77.217-1.018.515m-1.104.213c-.221.56.642 1.233 1.054.821.101-.101.011-.183-.198-.183-.21 0-.436-.274-.504-.609-.112-.558-.143-.56-.352-.029m-251.523 3.108c-.743.743-.706 2.142.077 2.931.22.221.215.004-.011-.597-.214-.566-.229-1.026-.037-1.144.175-.109.221-.455.1-.77-.164-.426-.074-.516.352-.352.315.121.665.069.778-.114.35-.565.87-.37 1.2.451.193.481.323.575.337.244.057-1.404-1.645-1.8-2.796-.649m3.756-.505c-.266.267.03.823.439.823.16 0 .381-.235.491-.523.199-.518-.489-.74-.93-.3m255.23.215c-.2.241-.471.907-.603 1.481-.24 1.043-.24 1.043.341.259.319-.432.49-.931.38-1.109-.11-.178-.041-.422.154-.542.195-.121.354.094.354.478 0 .383-.159.795-.354.915-.195.121-.262.368-.15.549.112.182.335.249.496.15.16-.099.213.12.117.487-.267 1.023.885 1.419 3.289 1.128.514-.062.596-1.098.087-1.098-.192 0-.349-.235-.349-.522 0-.288-.166-.523-.369-.523-.203 0-.262-.172-.132-.383.172-.278.04-.278-.481.001-.825.441-1.211.058-.902-.893.172-.533.144-.553-.168-.119-.338.47-.539.265-.428-.435.067-.428-.89-.297-1.282.176m3.531.505c.352.091.855.661 1.119 1.267.545 1.253.683.741.166-.619-.236-.621-.582-.881-1.132-.853-.636.032-.666.073-.153.205m-268.41 2.542c0 .192.118.33.261.307.144-.023.34-.011.436.027.744.29 1.278.207 1.278-.199 0-.299-.378-.484-.988-.484-.543 0-.987.157-.987.349m271.391.125c.267.324.385.689.262.812-.124.124-.224.015-.224-.24 0-.256-.104-.362-.23-.236-.126.127-.443.052-.704-.165-.376-.312-.43-.275-.257.177.121.315.377.572.568.572.192 0 .25.258.129.572-.186.486-.137.504.331.115.303-.251.523-.312.489-.136-.174.918.027 1.375.371.843.49-.759.455.194-.041 1.121-.337.63-.306.695.233.488.365-.14.741-.054.907.208.19.3.285.315.289.045.003-.231.303-.325.702-.221.383.1.697.033.697-.149s.235-.331.523-.331c.287 0 .522.2.522.444 0 .245.155.54.345.657.204.127.251-.03.115-.385-.16-.415-.101-.518.193-.336.233.143.681.052.996-.204.503-.41.541-.382.312.231-.204.546-.168.606.164.276.677-.672-.285-1.596-1.376-1.322-.766.192-.815.152-.41-.336 1.308-1.576-.48-2.687-2.141-1.331-1.106.903-1.127.907-.463.087.384-.472.854-.974 1.046-1.114.191-.141.035-.261-.349-.266-.383-.005-1.324-.112-2.09-.237-1.28-.21-1.354-.18-.909.361m-272.342.598c-.045.59.037.647.444.309.275-.228.413-.553.308-.723-.331-.537-.696-.336-.752.414m-2.464.043c-.23.23-.415.74-.413 1.133.005.646.047.632.439-.142.238-.471.824-.965 1.301-1.098l.869-.241-.889-.035c-.489-.019-1.077.153-1.307.383m3.32.316c-.49.536-.761.6-1.307.307-.82-.439-.884-.081-.168.941.61.87-.027.953-1.016.131-.492-.408-.534-.387-.324.16.142.37.103.544-.094.422-.185-.114-.357.08-.384.431-.048.645.415.738 1.206.244.302-.189.365-.096.209.311-.179.468-.077.535.527.343.49-.156.749-.089.749.192 0 .237.101.329.224.206.123-.123.006-.493-.261-.822-.267-.329-.304-.489-.081-.355.63.378 1.512-.114 1.512-.843 0-.363-.152-.66-.338-.66-.185 0-.247-.235-.137-.522.111-.288.35-.523.533-.523.182 0 .22.181.083.402-.158.255-.095.308.17.144.321-.199.324-.375.012-.751-.225-.27-.428-.479-.453-.463-.024.016-.322.333-.662.705m276.19.166c.448 1.166-.478 1.92-1.409 1.147-.414-.344-.399-.502.098-1.051.716-.792 1.035-.815 1.311-.096m-1.377.528c-.091.146-.005.365.189.485.392.242 1.051-.06 1.051-.481 0-.349-1.025-.352-1.24-.004m4.376 3.015c0 .271.186.431.414.355.632-.21.721-.849.118-.849-.292 0-.532.222-.532.494m-286.759.181c0 .258.201.745.448 1.082.422.578.448.575.448-.051 0-.365-.202-.852-.448-1.083-.351-.327-.448-.316-.448.052m-39.749 1.561c-.393.519-.389.545.027.174.844-.753 3.744-.439 3.255.352-.147.237-.055.259.263.06.269-.168 4.096-.327 8.503-.354 4.408-.027 8.737-.166 9.621-.311 1.445-.236 1.666-.18 2.178.552.446.636.571.686.571.227 0-1.188-1.175-1.31-12.653-1.31-10.358 0-11.343.051-11.765.61m38.268.055c-.526.338-.865.707-.752.82.176.175-.726.099-1.252-.106a1.016 1.016 0 00-.435-.026c-.144.022-.262-.116-.262-.307 0-.433-.705-.443-1.374-.02-.574.363-.002 2.11.691 2.11.207 0 .29-.139.185-.309-.105-.17.029-.491.297-.714.288-.239.57-.271.689-.079.111.18-.032.52-.317.757-.286.237-.519.642-.519.899 0 .672-.885.24-1.356-.661-.38-.726-.393-.715-.265.203.073.531-.002 1.05-.168 1.152-.166.103-.302.439-.302.747s.095.465.212.349c.276-.276 1.157.538.951.879-.087.144.008.261.211.261.471 0 .464-.215-.037-1.155-.367-.688-.35-.715.174-.283.505.416.581.394.591-.174.011-.62.039-.618.57.044.453.566.519.583.348.088-.155-.45-.024-.61.496-.61.445 0 .615.149.458.402-.154.249-.096.308.154.154.221-.137.402-.536.402-.888 0-.351.27-.743.6-.869.514-.197.526-.277.087-.555-.347-.219-.372-.326-.077-.329.239-.003.435-.241.435-.528 0-.288.118-.504.262-.482.69.109.905-.086.435-.395-.464-.305-.464-.381 0-.686.288-.189.366-.334.174-.323-.191.011-.779.296-1.306.634m305.226-.288c-.335.195-.61.617-.61.938 0 .45.13.398.571-.232.512-.732.733-.788 2.178-.552.884.145 5.213.284 9.621.311 4.407.027 8.234.186 8.503.354.318.199.41.177.263-.06-.279-.452.535-.787 1.91-.787.731 0 .963.128.787.435-.138.24-.127.324.025.187s.569-.093.927.099c.358.192.651.211.651.044 0-1.088-23.049-1.773-24.826-.737m-13.327.32c-.255.412.086.412 1.045 0 .672-.289.669-.3-.067-.324-.419-.013-.86.132-.978.324m38.676 0c-.255.412.086.412 1.045 0 .672-.289.669-.3-.067-.324-.419-.013-.86.132-.978.324m-373.304.316c-.265.168-.529.959-.586 1.759-.057.799-.29 1.679-.519 1.954-.631.761.17.598.872-.177.608-.672 2.159-.316 1.719.395-.207.334.917-.043 1.521-.511.24-.185.447-.2.461-.033.013.167.15-.01.305-.393.168-.417.123-.898-.112-1.199-.299-.384-.29-.441.039-.243.289.173.366.088.234-.258-.216-.561-2.047-1.332-2.378-1.001-.112.112-.204.021-.204-.202 0-.478-.67-.523-1.352-.091m375.917.033c.478.309.243.503-.462.381-.158-.028-.183.118-.056.324.163.262.377.253.719-.031.532-.441.354-1.026-.309-1.018-.249.004-.206.141.108.344m-374.367.722c.488.539.524.694.141.61-.325-.072-.475.11-.41.497.056.335-.071.61-.282.61-.212 0-.299-.139-.194-.309.105-.17-.072-.523-.393-.784-.51-.415-.555-.398-.355.134.125.336.076.61-.109.61-.439 0-.429-.571.023-1.417.459-.857.767-.848 1.579.049m38.28-.414c.105.17-.029.492-.297.714-.543.451-1.099-.067-.724-.674.266-.431.767-.451 1.021-.04m-8.687.759c-.646.257-.649.279-.044.302.563.021.59.108.193.634-.43.571-.419.573.172.034.803-.732.603-1.337-.321-.97m306.795-.046c0 .178-.353.379-.784.446-.716.111-.701.139.174.324.775.164.958.078.958-.446 0-.357-.078-.649-.174-.649-.096 0-.174.146-.174.325m6.272.188c0 .246.274.663.609.926.546.428.563.417.156-.103-.385-.492-.359-.6.174-.711.53-.11.505-.164-.155-.345-.518-.141-.784-.062-.784.233m32.404-.164c0 .191-.226.348-.502.348s-.575.118-.664.262c-.089.143.216.261.676.261.566 0 .838-.198.838-.61 0-.335-.078-.61-.174-.61-.096 0-.174.157-.174.349M8.225 182.537c-.632.7-.661 1.814-.046 1.828.187.004.395-.2.463-.454.082-.313-.005-.293-.272.061-.331.44-.373.412-.267-.174.07-.383.313-.658.541-.61.229.048.376-.099.328-.328-.048-.228.227-.471.61-.541.586-.106.614-.064.174.267-.354.267-.374.354-.061.272.738-.196.65-.793-.132-.905-.394-.056-.996.207-1.338.584m35.655-.16c.201.242.249.577.107.745-.143.167.019.091.359-.169.66-.506.563-.811-.299-.937-.391-.058-.435.038-.167.361m1.906-.093c-.166.267-.095.307.212.117.343-.212.4-.123.22.344-.201.524-.155.558.274.201.284-.235.704-.311.933-.17.264.164.327.111.169-.144-.149-.241-.022-.402.315-.402.338 0 .464.161.316.402-.154.249-.096.308.153.154.226-.139.405-.048.408.207.004.331.096.313.335-.066.239-.378.165-.588-.266-.76-.973-.386-2.802-.316-3.069.117m305.359-.117c-.431.172-.505.382-.266.76.239.379.331.397.335.066.003-.255.182-.346.408-.207.249.154.307.095.153-.154-.148-.241-.022-.402.316-.402.337 0 .464.161.315.402-.158.255-.095.308.169.144.229-.141.649-.065.933.17.429.357.475.323.274-.201-.18-.467-.123-.556.22-.344.307.19.378.15.212-.117-.267-.433-2.096-.503-3.069-.117m4.07.082c-.085.138.118.459.451.714.333.255.49.326.347.159-.142-.168-.105-.49.082-.715.235-.283.176-.409-.193-.409-.292 0-.602.113-.687.251m34.574-.145c-.304.304.054.824.563.817.254-.003.212-.145-.108-.367-.43-.297-.399-.339.174-.235.383.07.658.313.61.541-.048.229.099.376.328.328.228-.048.471.227.541.61.106.586.064.614-.267.174-.267-.354-.354-.374-.272-.061.171.644.778.564.92-.121.232-1.116-1.73-2.445-2.489-1.686m-39.883 1.352c-.363.412-.319.626.248 1.193.39.39.783.544.901.353.115-.186-.019-.425-.298-.532-.299-.115-.434-.469-.329-.869.207-.795.081-.83-.522-.145M6.479 185.579c-.159.415-.067.504.353.343.455-.174.535-.043.401.658-.092.482-.033.876.132.876s.301-.3.301-.668c0-.368.095-.916.211-1.219.149-.39.007-.552-.485-.552-.384 0-.794.253-.913.562m385.644-.01c.116.303.211.851.211 1.219 0 .368.136.668.301.668.165 0 .224-.394.132-.876-.134-.701-.054-.832.401-.658.42.161.512.072.353-.343-.119-.309-.529-.562-.913-.562-.492 0-.634.162-.485.552m-387.104.199c-.165.268-.094.307.213.117.335-.207.4-.126.239.295-.123.319-.071.58.115.58.185 0 .337-.314.337-.697 0-.764-.511-.931-.904-.295m389.058.295c0 .383.152.697.337.697.186 0 .238-.261.115-.58-.161-.421-.096-.502.239-.295.307.19.378.151.213-.117-.393-.636-.904-.469-.904.295m-389.52.958c-.03.853.212.956 1.018.435.452-.292.444-.338-.058-.343-.32-.003-.66-.201-.757-.441-.096-.239-.188-.082-.203.349m390.605-.349c-.022.24-.314.441-.65.447-.565.009-.563.037.026.38.768.446 1.051.232.829-.625-.09-.35-.182-.441-.205-.202M3.397 188.734c-1.569.461-2.123 1.179-1.301 1.688.195.12.272.353.17.516-.101.164.092.371.43.459.467.121.484.17.074.2-.404.031-.505.34-.4 1.236.13 1.109 1.101 2.098 1.125 1.146.006-.234.167-.157.358.17.499.857 1.373.371 1.373-.764 0-.531.232-1.158.516-1.393.377-.313.423-.6.169-1.074-.19-.355-.319-.77-.286-.921.271-1.264-.58-1.747-2.228-1.263m391.197-.132c-.388.463-.398 1.379-.031 2.842.174.691.125.879-.178.692-.271-.168-.324-.109-.153.168.145.235.505.334.8.22.402-.154.446-.094.174.238-.26.318-.205.589.191.955.49.452.529.446.339-.051-.155-.403.022-.608.62-.723.552-.105.754-.029.594.226-.371.593-.407 1.256-.067 1.256.168 0 .473-.314.678-.697.484-.904 1.045-.893 1.045.021 0 .394-.14.63-.312.524-.171-.106-.389.01-.484.257-.116.303.185.466.922.5.601.027.898-.032.658-.133-.239-.1-.435-.609-.435-1.132 0-.523-.307-1.28-.682-1.682-.562-.604-.592-.765-.174-.926.704-.27.634-1.387-.13-2.079-.794-.718-1.759-.744-2.024-.054-.308.803-1.139.646-.924-.174.207-.79.086-.86-.427-.248m-389.965.95c-.308 1.178-1.539 1.651-2.205.848-.485-.585-.091-1.317.573-1.062.268.103.487.035.487-.15 0-.186.299-.338.665-.338.494 0 .617.18.48.702m393.211-.284c.593.593.518.975-.192.981-.521.005-.534.055-.087.343.576.372.338.457-.443.157-.315-.121-.439-.506-.336-1.045.182-.95.438-1.056 1.058-.436m-394.506.601c-.578.639-.576.666.033.577.352-.052.691-.353.753-.671.146-.75-.042-.728-.786.094m-1.871 3.232c-.454.454-.588 4.662-.156 4.929.143.089.294-.216.334-.677.137-1.588.218-1.851.513-1.669.163.101.206.329.096.507-.405.655.45.301 1.093-.453.558-.654.566-.702.046-.299-.539.417-.59.406-.399-.091.283-.738-.849-1.215-1.278-.538-.23.363-.309.283-.313-.318-.003-.443.142-.714.322-.603.18.112.304-.114.274-.502-.029-.387-.066-.704-.083-.704s-.219.188-.449.418m396.708 11.428c.554.622.566 2.867.017 3.415-.325.325-.286.418.174.418.326 0 .595-.196.598-.435.004-.295.11-.27.33.077.487.771.593.374.436-1.645-.08-1.03-.286-1.74-.472-1.625-.181.112-.597.002-.924-.245-.504-.38-.528-.374-.159.04m.132 4.908c-.562.601-.728 1.091-.58 1.713.519 2.176.247 3.412-.637 2.898-.218-.127-.11.097.241.496.35.4.606 1.015.569 1.367-.154 1.467.018 1.607.859.7.557-.601.905-.767 1.02-.486.097.234.172-1.26.168-3.321-.004-2.061-.136-3.667-.294-3.569-.157.097-.348-.007-.423-.232-.083-.25-.442-.081-.923.434M1.189 212.754c.638.245.399.835-.338.835a.514.514 0 01-.503-.523c0-.586.064-.61.841-.312m.902 4.862c0 .277.229.502.51.502s.695.353.922.784c.399.761.391.766-.277.175-.378-.336-.915-.61-1.194-.61-.291 0-.538-.378-.58-.89-.043-.516.072-.801.272-.677.191.118.347.44.347.716m393.165 2.398c-.179.467-.294.5-.513.146-.162-.263-.11-.561.126-.707.546-.337.665-.164.387.561M2.793 221.379c.003.219.157.163.343-.125.446-.69.445-.135-.001.699-.244.457-.228.728.054.902.274.169.309.092.108-.24-.242-.401-.198-.411.24-.057.294.238.637.329.763.203s.23-.041.23.188c0 .712-1.039.859-1.719.243-.785-.71-1.176-2.654-.481-2.387.252.097.46.355.463.574m-1.515 10.212c-.128.128-.233.703-.233 1.278 0 1.317.307 1.056.477-.407.137-1.173.12-1.235-.244-.871m397.154 1.021c0 .652.118 1.186.261 1.186.144 0 .262-.461.262-1.025 0-.563-.118-1.097-.262-1.186-.143-.089-.261.372-.261 1.025M.569 266.469c.218.141.474.569.57.953.133.534.183.473.214-.262.03-.697-.125-.956-.569-.953-.387.004-.465.099-.215.262m397.352 3.196c-.205.383-.228.759-.052.867.17.106.388-.107.483-.472.096-.364.545-.733.998-.819.766-.145.757-.16-.122-.204-.613-.031-1.073.19-1.307.628M2.232 271.133c-.293.474.774 1.341 1.65 1.341.337 0 .773.274.968.61.331.568.356.569.366.012.012-.688-.981-1.306-1.693-1.052-.301.107-.39.02-.235-.23.146-.237.058-.363-.213-.307-.254.053-.423-.1-.375-.34.109-.545-.14-.564-.468-.034m395.043-.053c.061.288-.096.48-.35.427-.279-.058-.36.069-.204.321.175.282.074.346-.311.198-.313-.12-.662-.069-.775.115-.32.517 1.016.392 1.772-.166.561-.414.598-.578.216-.959-.381-.379-.441-.368-.348.064M5.226 274.378c0 .537 1.029 1.235 1.807 1.227.252-.003.066-.212-.413-.464-.479-.253-.832-.642-.784-.866.048-.224-.069-.407-.261-.407s-.349.229-.349.51m388.938-.103c.048.224-.305.613-.784.866-.479.252-.665.461-.413.464.778.008 1.807-.69 1.807-1.227 0-.281-.157-.51-.349-.51-.192 0-.309.183-.261.407M8.362 275.942c.288.195.824.356 1.191.359.891.007.613-.192-.668-.479-.763-.17-.904-.138-.523.12m2.788 2.064c0 .168.223.491.495.717.406.337.462.282.308-.306-.183-.7-.803-1.017-.803-.411m376.897.411c-.154.588-.098.643.308.306.554-.46.657-1.023.187-1.023-.169 0-.392.323-.495.717m-372.88 2.402c-.3.487.083 1.063.707 1.063.64 0 .645-.494.011-1.02-.336-.279-.563-.292-.718-.043m368.875.087c-.23.23-.418.543-.418.697 0 .415.968.337 1.238-.1.359-.581-.333-1.084-.82-.597m-7.3 1.913c.336.087.884.087 1.22 0 .335-.088.061-.16-.61-.16s-.945.072-.61.16m-355.482.892c.01.815.55 1.296 1.721 1.53.851.17 1.1.122.917-.175-.139-.225-.385-.327-.546-.227-.467.289-1.42-.206-1.171-.609.143-.23.055-.26-.235-.08-.335.207-.401.126-.239-.295.122-.319.07-.58-.115-.58-.186 0-.335.196-.332.436m353.829 1.304c-.348.385-.471.699-.273.699.439 0 1.308-.996 1.074-1.23-.093-.092-.453.147-.801.531m-4.009.699l-1.568.244 1.46.052c.804.029 1.558-.104 1.676-.296.119-.191.167-.325.108-.296-.059.029-.813.162-1.676.296m-343.38.177c.814.283 2.962.357 2.962.102 0-.153-.745-.266-1.655-.251-.91.015-1.498.082-1.307.149m336.76 2.959l-1.22.257 1.112.046c.612.025 1.209-.111 1.327-.303.119-.191.167-.328.108-.302-.059.025-.656.161-1.327.302m-1.282 9.059c0 1.246.063 1.756.14 1.133.078-.623.078-1.642 0-2.265-.077-.623-.14-.113-.14 1.132m-329.641 2.265c.004.767.076 1.039.159.606.083-.434.08-1.061-.007-1.394-.087-.333-.156.022-.152.788m328.881 3.881c-.418.934-.409.96.141.422.324-.317.525-.766.447-.998-.077-.232-.342.027-.588.576m-2.349 1.313c-.103.269-.123 1.014-.045 1.655.131 1.069.148 1.046.199-.29.041-1.063.22-1.498.666-1.615.571-.149.57-.162-.011-.2-.342-.022-.706.18-.809.45m-323.396 1.426c.004.767.075 1.04.159.606.083-.433.08-1.06-.007-1.394-.087-.333-.156.022-.152.788m129.639 2.176a7.805 7.805 0 01-.392.927c-.096.173.007.203.228.067.222-.137.403-.475.403-.751 0-.628 63.571-.772 63.882-.145.097.196.136.157.087-.087-.163-.803-63.922-.813-64.208-.011m-129.378 1.386c0 .439.996 1.308 1.23 1.074.092-.093-.147-.453-.531-.801-.385-.348-.699-.471-.699-.273m322.348.83c-.173.459-.226.985-.116 1.169.109.184.321-.121.47-.679.337-1.259.074-1.623-.354-.49m-.454 2.052c-.071.214-.397.428-.723.476-.897.131-1.179.572-.366.572.725 0 1.747-.909 1.406-1.25-.103-.103-.246-.012-.317.202m-121.546 8.693c0 .886 1.182 2.118 2.004 2.089.43-.016.356-.123-.252-.366-.997-.398-1.462-1-1.241-1.605.086-.233.006-.517-.178-.63-.183-.113-.333.117-.333.512m115.211.557c.131.342.032.5-.273.436-.263-.056-.432.114-.376.377.063.3-.094.403-.425.276-.289-.111-.618-.052-.732.132-.343.556 1.141.372 1.727-.215.608-.607.735-1.543.21-1.543-.185 0-.245.242-.131.537m-308.585.227c-.006.681.307.917 1.777 1.339.891.255.998.225.66-.182-.221-.267-.633-.397-.914-.289-.282.108-.466.059-.41-.108a.27.27 0 00-.209-.362c-.17-.031-.442-.266-.604-.522-.228-.361-.296-.333-.3.124m114.748-.194c.276.495-.656 1.312-1.149 1.008-.2-.124-.364-.059-.364.144 0 .522.792.457 1.588-.13.576-.425.604-.568.19-.959-.268-.252-.387-.28-.265-.063m81.767 3.273c.008.705.603 1.589.883 1.309.126-.126-.023-.587-.33-1.026-.359-.513-.556-.614-.553-.283m105.398 4.169c-.348.384-.519.699-.38.699.368 0 1.361-1.05 1.172-1.238-.088-.088-.444.155-.792.539m-292.314 1.919c.254 1.322.724 1.831 1.226 1.329.272-.271.189-.512-.293-.854-.369-.261-.775-.711-.903-.998-.127-.288-.141-.052-.03.523m95.806-.159c.304.493-.513 1.426-1.008 1.149-.217-.122-.189-.003.063.265.391.414.534.386.959-.19.587-.796.652-1.588.13-1.588-.203 0-.268.164-.144.364m97.725.464c0 .632.773 1.25 1.962 1.568.646.173 1.044.571 1.217 1.217.356 1.332.957 1.967 1.829 1.934.63-.023.598-.08-.217-.377-.527-.193-.982-.533-1.011-.757-.029-.223-.07-.588-.092-.81-.058-.609-1.3-1.87-1.636-1.662-.508.313-1.769-.569-1.567-1.097.105-.273.038-.496-.147-.496-.186 0-.338.216-.338.48m95.819.18c0 .235-.181.315-.402.178-.235-.145-.308-.096-.176.117.248.403-.704.898-1.171.609-.161-.1-.392-.022-.512.173-.244.395.307.448 1.453.141.743-.2 1.353-1.1.991-1.463-.101-.1-.183.01-.183.245m-195.913 1.128c-.331.186-.592.683-.578 1.104.023.709.044.717.287.096.145-.369.555-.773.911-.898s.498-.32.315-.433c-.183-.113-.604-.054-.935.131m192.657 1.885c.131.342.032.5-.273.436-.263-.056-.432.114-.376.377.063.3-.094.403-.425.276-.289-.111-.618-.052-.732.132-.343.556 1.141.372 1.727-.215.608-.607.735-1.543.21-1.543-.185 0-.245.242-.131.537m-282.801.235c-.006.639.979 1.319 1.908 1.319.312 0 .474-.15.361-.333-.114-.184-.443-.243-.732-.132-.289.111-.48.065-.424-.102a.27.27 0 00-.209-.362c-.17-.031-.442-.266-.604-.522-.227-.359-.296-.329-.3.132m88.964-.202c.269.482-.65 1.316-1.125 1.022a.41.41 0 00-.559.145c-.33.533.987.425 1.759-.145.576-.425.604-.568.19-.959-.268-.252-.387-.28-.265-.063m-8.83 5.528c-.3.361-.313.522-.043.522.215 0 .391-.145.391-.324 0-.178.353-.392.784-.475.751-.145.753-.153.043-.198-.408-.027-.937.187-1.175.475m122.996 1.858c0 .342.811.755 1.481.755.396 0 .026-.519-.377-.528-.128-.003-.429-.13-.668-.282-.24-.152-.436-.127-.436.055m69.687.058c0 .192-.262.349-.581.349-.319 0-.488.092-.375.206.291.29 1.653-.186 1.653-.578 0-.179-.157-.325-.349-.325a.35.35 0 00-.348.348m-63.415 2.523c0 .643.718 1.315 1.376 1.288.322-.013.214-.153-.266-.346-.443-.178-.715-.47-.604-.65.111-.18.043-.426-.152-.547-.195-.12-.354-.005-.354.255m-193.38.576c0 .171.248.406.551.522.853.327.965.257.495-.311-.481-.579-1.046-.693-1.046-.211m57.143 0c0 .234-.146.336-.324.226-.179-.11-.423-.041-.543.154-.121.195.016.354.303.354.585 0 1.096-.63.773-.952-.115-.115-.209-.017-.209.218m190.941.734c-.423.273-.373.339.261.343.431.003.784-.151.784-.343 0-.437-.37-.437-1.045 0m-241.376.598c.527.08 1.389.08 1.916 0 .527-.08.096-.145-.958-.145s-1.485.065-.958.145m41.068.534c.029.563.084.617.196.191.119-.45.634-.623 2.138-.718l1.981-.125-2.178-.066c-2.056-.062-2.175-.022-2.137.718m152.311-.534c.527.08 1.39.08 1.917 0 .527-.08.096-.145-.958-.145s-1.486.065-.959.145m42.509 0c.527.08 1.389.08 1.916 0 .527-.08.096-.145-.958-.145s-1.485.065-.958.145"/></g></svg>