<?xml version="1.0" standalone="no"?>
<!DOCTYPE svg PUBLIC "-//W3C//DTD SVG 20010904//EN"
 "http://www.w3.org/TR/2001/REC-SVG-20010904/DTD/svg10.dtd">
<svg version="1.0" xmlns="http://www.w3.org/2000/svg"
 width="124.000000pt" height="108.000000pt" viewBox="0 0 124.000000 108.000000"
 preserveAspectRatio="xMidYMid meet">

<g transform="translate(0.000000,108.000000) scale(0.100000,-0.100000)"
fill="#000000" stroke="none">
<path d="M460 595 c0 -21 5 -25 30 -25 25 0 30 4 30 25 0 21 -5 25 -30 25 -25
0 -30 -4 -30 -25z"/>
<path d="M700 595 c0 -21 5 -25 30 -25 25 0 30 4 30 25 0 21 -5 25 -30 25 -25
0 -30 -4 -30 -25z"/>
<path d="M300 532 c-43 -21 -48 -42 -18 -76 51 -60 260 -98 421 -78 121 15
189 37 227 72 40 37 36 60 -14 83 -42 20 -63 17 -72 -10 -14 -43 -28 -61 -60
-77 -42 -20 -64 -20 -89 -2 -15 11 -22 11 -44 0 -33 -17 -49 -17 -82 0 -22 11
-29 11 -44 0 -10 -8 -27 -14 -37 -14 -31 0 -86 32 -99 59 -15 31 -40 61 -48
61 -3 -1 -22 -9 -41 -18z"/>
</g>
</svg>
